<?xml version="1.0" encoding="UTF-8"?>
<svg version="1.1" xmlns="http://www.w3.org/2000/svg" width="200" height="200">
<path d="M0 0 C4.65261751 3.37542839 7.48840781 6.79045039 9.1875 12.3125 C9.1875 13.6325 9.1875 14.9525 9.1875 16.3125 C9.91195312 16.26609375 10.63640625 16.2196875 11.3828125 16.171875 C17.5534306 15.94150526 21.39378256 15.98646231 26.1875 20.3125 C29.6627089 24.07730964 32.04902271 27.3480603 32.29296875 32.5703125 C32.02011529 39.17942971 29.9922053 43.72158721 25.1875 48.3125 C22.98828125 49.53125 22.98828125 49.53125 21.1875 50.3125 C21.6825 52.0759375 21.6825 52.0759375 22.1875 53.875 C23.45689671 59.0530427 23.93293179 63.35083739 22 68.4375 C18.69739356 73.67611712 15.00848397 77.10052609 9.1875 79.3125 C3.08935235 80.11791573 -1.56374399 78.24154103 -6.8125 75.3125 C-7.8025 74.3225 -7.8025 74.3225 -8.8125 73.3125 C-9.42996094 73.6734375 -10.04742187 74.034375 -10.68359375 74.40625 C-16.5319615 77.61083507 -21.12937159 79.44502269 -27.8125 78.3125 C-33.02051547 76.6632951 -36.35803204 74.55656064 -39.8125 70.3125 C-42.28112353 65.25769943 -42.44691699 59.83836395 -41.8125 54.3125 C-40.3125 51.1875 -40.3125 51.1875 -38.8125 49.3125 C-39.369375 49.085625 -39.92625 48.85875 -40.5 48.625 C-44.24497381 46.49947432 -46.95500002 43.78249997 -49.125 40.0625 C-50.58262395 34.23200419 -50.76990209 29.31243575 -47.6875 24 C-44.8045048 19.94604037 -41.7386231 17.01343443 -36.7578125 15.8203125 C-33.40851254 15.31730408 -31.04608717 15.23463761 -27.8125 16.3125 C-27.59207031 15.45978516 -27.59207031 15.45978516 -27.3671875 14.58984375 C-25.66754532 8.73877669 -23.47687237 4.3366644 -18.8125 0.3125 C-13.03719058 -2.63932481 -5.809004 -3.07902143 0 0 Z M-9.8125 22.3125 C-9.96203125 23.01117188 -10.1115625 23.70984375 -10.265625 24.4296875 C-11.14553794 27.47487641 -11.96166264 29.72475517 -13.8125 32.3125 C-17.77526607 33.80907655 -21.59723936 34.1666891 -25.8125 34.3125 C-25.8125 35.3025 -25.8125 36.2925 -25.8125 37.3125 C-25.02875 37.910625 -24.245 38.50875 -23.4375 39.125 C-20.30926035 41.73186637 -19.54301154 43.33527051 -18.8125 47.3125 C-19.6875 50 -19.6875 50 -20.8125 52.3125 C-20.8125 53.3025 -20.8125 54.2925 -20.8125 55.3125 C-18.20215319 54.82910244 -16.70524457 54.23713132 -14.5 52.6875 C-10.88018053 50.83549934 -8.72115929 51.45970161 -4.8125 52.3125 C-4.02875 52.43625 -3.245 52.56 -2.4375 52.6875 C-1.90125 52.89375 -1.365 53.1 -0.8125 53.3125 C-0.4825 54.3025 -0.1525 55.2925 0.1875 56.3125 C0.8475 56.3125 1.5075 56.3125 2.1875 56.3125 C1.95160156 55.45978516 1.95160156 55.45978516 1.7109375 54.58984375 C0.84005262 50.80084459 0.56183389 47.16275296 1.1875 43.3125 C3.62503362 40.21617351 5.92200731 38.48949513 9.1875 36.3125 C9.1875 35.6525 9.1875 34.9925 9.1875 34.3125 C7.97513672 34.26996094 7.97513672 34.26996094 6.73828125 34.2265625 C3.29983272 33.91963223 0.43274575 33.51100428 -2.8125 32.3125 C-5.30054808 29.23932814 -6.62222609 26.06324687 -7.8125 22.3125 C-8.4725 22.3125 -9.1325 22.3125 -9.8125 22.3125 Z " fill="#8F313D" transform="translate(108.8125,31.6875)"/>
<path d="M0 0 C0.39832031 1.10408203 0.39832031 1.10408203 0.8046875 2.23046875 C1.15789062 3.20628906 1.51109375 4.18210937 1.875 5.1875 C2.22304687 6.15042969 2.57109375 7.11335938 2.9296875 8.10546875 C4.38100928 12.0303937 5.67013065 15.50519597 8 19 C8.99600269 24.60906776 9.63140602 30.0356257 7.875 35.5 C4.2298225 40.36023666 0.74905803 43.81535795 -5 46 C-11.09814765 46.80541573 -15.75124399 44.92904103 -21 42 C-21.66 41.34 -22.32 40.68 -23 40 C-23.92619141 40.54140625 -23.92619141 40.54140625 -24.87109375 41.09375 C-30.7194615 44.29833507 -35.31687159 46.13252269 -42 45 C-47.20801547 43.3507951 -50.54553204 41.24406064 -54 37 C-56.38176638 32.1230498 -56.89533694 26.35276709 -56 21 C-55.01 20.34 -54.02 19.68 -53 19 C-52.73445313 19.56589844 -52.46890625 20.13179687 -52.1953125 20.71484375 C-51.84210938 21.44832031 -51.48890625 22.18179688 -51.125 22.9375 C-50.77695313 23.66839844 -50.42890625 24.39929688 -50.0703125 25.15234375 C-49.1315023 27.16332459 -49.1315023 27.16332459 -47 28 C-43.12785818 28.43023798 -41.47503629 28.31669086 -38.1875 26.125 C-35.95999833 24.19494846 -35.95999833 24.19494846 -35 22 C-30.84360692 18.97635783 -27.38765443 16.97725157 -22.1875 17.0625 C-17.81000849 18.3499975 -15.08151807 19.61033012 -12 23 C-12.32226562 22.43152344 -12.64453125 21.86304687 -12.9765625 21.27734375 C-14.6479785 17.55812419 -14.56706052 13.99813553 -14 10 C-11.24209552 5.14608811 -5.78854302 0 0 0 Z " fill="#D3AE36" transform="translate(123,65)"/>
<path d="M0 0 C1.25224439 3.75673318 0.50472288 4.88715884 -0.9375 8.5 C-2.58635777 12.62467584 -2.58635777 12.62467584 -3 17 C-2.01 17.33 -1.02 17.66 0 18 C0 18.66 0 19.32 0 20 C0.7425 20.04125 1.485 20.0825 2.25 20.125 C6.15694537 21.36811898 7.06795028 23.48090945 9 27 C10.77171717 31.95671163 9.07105263 36.3551392 7 41 C4.51550658 44.29560744 1.99122681 45.82157917 -2.125 46.5625 C-5.76827852 45.84968464 -6.79199638 44.96938418 -9 42 C-10.25203071 39.6770174 -11.11580306 37.51298079 -12 35 C-11.67 34.34 -11.34 33.68 -11 33 C-11.556875 32.773125 -12.11375 32.54625 -12.6875 32.3125 C-16.43247381 30.18697432 -19.14250002 27.46999997 -21.3125 23.75 C-22.77012395 17.91950419 -22.95740209 12.99993575 -19.875 7.6875 C-14.4766727 -0.01125086 -8.70297222 -1.28404508 0 0 Z " fill="#90313D" transform="translate(81,48)"/>
<path d="M0 0 C4.01613169 2.91366417 6.6395846 5.25781724 7.9375 10.125 C8.02 10.846875 8.1025 11.56875 8.1875 12.3125 C5.1875 12.3125 5.1875 12.3125 2.1875 10.3125 C-2.71007389 10.48583128 -2.71007389 10.48583128 -6.75 13 C-8.01562252 15.30572234 -8.01562252 15.30572234 -7.73828125 18.06640625 C-7.87190322 23.91060915 -10.1250152 28.8183779 -13.8125 33.3125 C-17.82065351 34.89384181 -21.54250183 35.12712583 -25.8125 35.3125 C-26.8025 35.8075 -26.8025 35.8075 -27.8125 36.3125 C-27.8125 35.6525 -27.8125 34.9925 -27.8125 34.3125 C-29.1325 33.9825 -30.4525 33.6525 -31.8125 33.3125 C-30.66145924 27.91240453 -29.32981186 22.62309151 -27.8125 17.3125 C-27.70550781 16.60222656 -27.59851563 15.89195313 -27.48828125 15.16015625 C-26.45499456 8.66044968 -23.7975321 4.61393065 -18.8125 0.3125 C-13.084495 -2.67602435 -5.78334977 -3.06542359 0 0 Z " fill="#D2AE36" transform="translate(108.8125,31.6875)"/>
<path d="M0 0 C2 0.8125 2 0.8125 3.25 2.875 C3.4975 3.514375 3.745 4.15375 4 4.8125 C3.34 4.8125 2.68 4.8125 2 4.8125 C2.17402344 5.92625 2.34804687 7.04 2.52734375 8.1875 C3.1428569 13.11160523 2.89247031 17.8743237 2.5625 22.8125 C2.51029297 23.68261719 2.45808594 24.55273438 2.40429688 25.44921875 C2.27607439 27.57071809 2.1389652 29.69167725 2 31.8125 C0.02 31.8125 -1.96 31.8125 -4 31.8125 C-5.13480527 28.20256828 -5.10015767 24.8282673 -5.0625 21.0625 C-5.05347656 19.89203125 -5.04445312 18.7215625 -5.03515625 17.515625 C-5.02355469 16.62359375 -5.01195312 15.7315625 -5 14.8125 C-7.46790859 17.73235069 -9.42319662 20.23339096 -10.625 23.875 C-11.58173637 26.64064777 -12.60186057 29.23131951 -14 31.8125 C-16.31 31.8125 -18.62 31.8125 -21 31.8125 C-22.17112946 29.18940901 -23.33705964 26.56421858 -24.5 23.9375 C-24.83386719 23.19113281 -25.16773437 22.44476563 -25.51171875 21.67578125 C-25.82753906 20.96035156 -26.14335938 20.24492187 -26.46875 19.5078125 C-26.76201172 18.84797363 -27.05527344 18.18813477 -27.35742188 17.50830078 C-28 15.8125 -28 15.8125 -28 13.8125 C-28.66 13.4825 -29.32 13.1525 -30 12.8125 C-30 11.4925 -30 10.1725 -30 8.8125 C-24.48113208 8.44457547 -24.48113208 8.44457547 -22.40625 10.03125 C-20.75602775 12.12153152 -20.08609572 13.9581855 -19.3125 16.5 C-18.93544922 17.71236328 -18.93544922 17.71236328 -18.55078125 18.94921875 C-18.36902344 19.56410156 -18.18726562 20.17898437 -18 20.8125 C-16.71067635 18.28408608 -15.52370857 15.74668664 -14.4375 13.125 C-13 9.8125 -13 9.8125 -12 8.8125 C-9.66666667 8.8125 -7.33333333 8.8125 -5 8.8125 C-4.34 8.4825 -3.68 8.1525 -3 7.8125 C-3.66 7.1525 -4.32 6.4925 -5 5.8125 C-4.75 3.25 -4.75 3.25 -4 0.8125 C-2 -0.1875 -2 -0.1875 0 0 Z " fill="#07263A" transform="translate(140,113.1875)"/>
<path d="M0 0 C0.33 0.66 0.66 1.32 1 2 C1.680625 1.896875 2.36125 1.79375 3.0625 1.6875 C7.23893442 2.13180153 10.10548492 3.97465938 13 7 C13.4375 9.8125 13.4375 9.8125 13 12 C11.68 12 10.36 12 9 12 C9 12.99 9 13.98 9 15 C7.35 15.33 5.7 15.66 4 16 C3.67 16.99 3.34 17.98 3 19 C2.34 19 1.68 19 1 19 C0.835 19.598125 0.67 20.19625 0.5 20.8125 C-1.83570738 24.21873993 -5.09270947 25.01228343 -9 26 C-14.22580645 26.38709677 -14.22580645 26.38709677 -17 25 C-17 24.34 -17 23.68 -17 23 C-17.86625 22.9071875 -17.86625 22.9071875 -18.75 22.8125 C-21.98687077 21.64363 -23.19549047 19.87384851 -25 17 C-24.75 14.6875 -24.75 14.6875 -24 13 C-23.67 13.66 -23.34 14.32 -23 15 C-21.68 15 -20.36 15 -19 15 C-19 14.34 -19 13.68 -19 13 C-17.5225254 12.63883954 -16.04295325 12.28624952 -14.5625 11.9375 C-13.73878906 11.74027344 -12.91507813 11.54304688 -12.06640625 11.33984375 C-11.04353516 11.17162109 -11.04353516 11.17162109 -10 11 C-9.67 11.33 -9.34 11.66 -9 12 C-8.7525 11.38125 -8.505 10.7625 -8.25 10.125 C-6.76259631 7.59641373 -5.56321991 7.28160996 -3 6 C-1.77472052 4.04978917 -1.77472052 4.04978917 -1 2 C-0.67 1.34 -0.34 0.68 0 0 Z " fill="#D3AE36" transform="translate(97,82)"/>
<path d="M0 0 C1.31677734 0.02707031 1.31677734 0.02707031 2.66015625 0.0546875 C3.41167969 0.07789062 4.16320312 0.10109375 4.9375 0.125 C6.45847602 0.125 7.97947618 0.09958595 9.5 0.0625 C11.9375 0.125 11.9375 0.125 12.9375 1.125 C13.18848924 4.59708807 13.12272096 8.0824062 13.125 11.5625 C13.13724609 12.54283203 13.14949219 13.52316406 13.16210938 14.53320312 C13.16500977 15.93795898 13.16500977 15.93795898 13.16796875 17.37109375 C13.17207764 18.23404053 13.17618652 19.0969873 13.18041992 19.98608398 C12.9375 22.125 12.9375 22.125 10.9375 24.125 C8.93625639 23.79921616 6.93647128 23.46444795 4.9375 23.125 C3.7825 23.33125 2.6275 23.5375 1.4375 23.75 C-2.82150421 24.20632188 -4.55062101 23.51946294 -8.0625 21.125 C-11.30252256 17.45297443 -11.52018085 13.99124716 -11.35546875 9.27734375 C-10.95078359 6.30425677 -9.95258434 4.43510308 -8.0625 2.125 C-4.77081561 -0.06945626 -3.80680708 -0.10091683 0 0 Z M-4 8.3125 C-5.30524006 11.06428947 -5.30524006 11.06428947 -4.625 13.875 C-3.19970284 16.4026608 -3.19970284 16.4026608 -0.125 17.125 C2.86425581 17.38760721 2.86425581 17.38760721 4.8125 16 C6.31707373 13.49237712 6.3693188 12.00379197 5.9375 9.125 C4.85416667 7.20833333 4.85416667 7.20833333 2.9375 6.125 C-0.61909402 5.4136812 -1.56198366 5.5599009 -4 8.3125 Z " fill="#07273C" transform="translate(155.0625,121.875)"/>
<path d="M0 0 C0.33 -0.33 0.66 -0.66 1 -1 C2.66617115 -1.04063832 4.33388095 -1.042721 6 -1 C8.55975195 3.7970924 8.03828449 8.07618548 7.625 13.3125 C7.56828125 14.14845703 7.5115625 14.98441406 7.453125 15.84570312 C7.31240504 17.89786928 7.1576007 19.94906118 7 22 C6.34 22.33 5.68 22.66 5 23 C2.375 22.0625 2.375 22.0625 0 21 C-0.33 21.33 -0.66 21.66 -1 22 C-4.70004043 22.98148441 -8.38533108 23.83563278 -11.89453125 22.01953125 C-14.04731358 20.23340284 -15.74304226 18.51391548 -17 16 C-17.12199138 14.0027458 -17.17547512 12.00094019 -17.1875 10 C-17.20167969 8.9275 -17.21585938 7.855 -17.23046875 6.75 C-17 4 -17 4 -15 2 C-9.6076784 -1.64346054 -6.01999203 -2.92399613 0 0 Z M-8.875 6.0625 C-10.64782183 9.11569315 -9.69235306 11.66411708 -9 15 C-6.19954954 15.85650653 -6.19954954 15.85650653 -3 16 C-0.60204619 14.18712805 -0.60204619 14.18712805 1 12 C0.03223902 8.20452079 0.03223902 8.20452079 -2 5 C-4.7592273 4.70955502 -6.43697676 4.6809535 -8.875 6.0625 Z " fill="#08263B" transform="translate(49,123)"/>
<path d="M0 0 C3.98471345 3.38096899 4.68902511 7.54146039 5.16015625 12.55859375 C5.0625 14.75 5.0625 14.75 3.375 17.75 C1.08584446 19.7298102 -0.04102927 20.25060849 -2.9375 20.75 C-3.2675 21.41 -3.5975 22.07 -3.9375 22.75 C-12.94712861 21.44325997 -12.94712861 21.44325997 -16.4375 19 C-18.79004563 15.47118155 -20.27662626 12.81301807 -19.5625 8.46875 C-18.52177251 4.82620377 -17.55366689 2.34804434 -14.8125 -0.3125 C-9.69189516 -1.98226245 -4.9850559 -2.12130038 0 0 Z M-10.6875 5.875 C-12.24410998 7.80061124 -12.24410998 7.80061124 -11.75 10.8125 C-11.17101637 13.84515868 -11.17101637 13.84515868 -8.9375 15.75 C-6.33469432 15.42958603 -6.33469432 15.42958603 -3.9375 14.75 C-3.2775 12.77 -2.6175 10.79 -1.9375 8.75 C-3.74972534 6.6875006 -3.74972534 6.6875006 -5.9375 4.75 C-8.86364653 4.4796212 -8.86364653 4.4796212 -10.6875 5.875 Z " fill="#082537" transform="translate(105.9375,123.25)"/>
<path d="M0 0 C1.3274855 3.98245651 -0.00092171 6.44789543 -1.4375 10.1875 C-1.68048828 10.84169922 -1.92347656 11.49589844 -2.17382812 12.16992188 C-2.7743293 13.78303286 -3.38609203 15.3919435 -4 17 C-6.86724686 16.42655063 -7.8614515 16.1385485 -10 14 C-10.1953125 11.8359375 -10.1953125 11.8359375 -10.125 9.375 C-10.10695313 8.55773438 -10.08890625 7.74046875 -10.0703125 6.8984375 C-10.04710938 6.27195312 -10.02390625 5.64546875 -10 5 C-14.42322197 6.35154005 -16.51643884 8.09726104 -19 12 C-20.53494178 16.60482533 -19.82128813 19.87679642 -18.03515625 24.23828125 C-16.55401312 26.75901919 -14.58097094 27.74439252 -12 29 C-12 29.66 -12 30.32 -12 31 C-11.113125 31.226875 -10.22625 31.45375 -9.3125 31.6875 C-3.80589871 33.86936089 -0.43725466 38.28968806 3 43 C3 43.66 3 44.32 3 45 C0.15916359 46.42041821 -1.85477278 46.31452272 -5 46 C-8.97598897 43.16000788 -10.42258324 39.48318448 -12 35 C-11.67 34.34 -11.34 33.68 -11 33 C-11.556875 32.773125 -12.11375 32.54625 -12.6875 32.3125 C-16.43247381 30.18697432 -19.14250002 27.46999997 -21.3125 23.75 C-22.77012395 17.91950419 -22.95740209 12.99993575 -19.875 7.6875 C-14.4766727 -0.01125086 -8.70297222 -1.28404508 0 0 Z " fill="#723742" transform="translate(81,48)"/>
<path d="M0 0 C1.31291016 -0.05607422 1.31291016 -0.05607422 2.65234375 -0.11328125 C5.0625 0.3125 5.0625 0.3125 6.87890625 2.33203125 C7.46478516 3.31236328 7.46478516 3.31236328 8.0625 4.3125 C6.4125 5.6325 4.7625 6.9525 3.0625 8.3125 C0.5875 7.3225 0.5875 7.3225 -1.9375 6.3125 C-2.2675 6.9725 -2.5975 7.6325 -2.9375 8.3125 C-3.494375 9.2715625 -3.494375 9.2715625 -4.0625 10.25 C-5.26141893 12.44344595 -5.26141893 12.44344595 -3.9375 15.3125 C-0.92902582 16.53770264 -0.92902582 16.53770264 2.0625 17.3125 C2.3925 16.6525 2.7225 15.9925 3.0625 15.3125 C4.0525 15.3125 5.0425 15.3125 6.0625 15.3125 C6.7225 16.9625 7.3825 18.6125 8.0625 20.3125 C6.34028897 22.45255895 5.48354781 23.24712864 2.72265625 23.67578125 C1.86542969 23.65902344 1.00820312 23.64226562 0.125 23.625 C-0.72964844 23.62113281 -1.58429688 23.61726563 -2.46484375 23.61328125 C-6.10967294 23.1699134 -8.11075381 22.17118866 -10.65625 19.52734375 C-13.03734616 15.41124155 -12.68562342 10.90325733 -11.9375 6.3125 C-8.38688479 1.64063788 -5.72303762 0.15967359 0 0 Z " fill="#092438" transform="translate(78.9375,121.6875)"/>
<path d="M0 0 C0.66 0.33 1.32 0.66 2 1 C0.84826645 3.46800047 -0.04783565 5.04783565 -2 7 C-2.99 7 -3.98 7 -5 7 C-5.66 8.65 -6.32 10.3 -7 12 C-7.66 11.67 -8.32 11.34 -9 11 C-10.99021521 11.09723451 -10.99021521 11.09723451 -13.125 11.4375 C-14.40375 11.623125 -15.6825 11.80875 -17 12 C-17 12.66 -17 13.32 -17 14 C-18.65 13.67 -20.3 13.34 -22 13 C-22 14.65 -22 16.3 -22 18 C-21.01 18.33 -20.02 18.66 -19 19 C-19 19.66 -19 20.32 -19 21 C-17.02 21.66 -15.04 22.32 -13 23 C-13 23.66 -13 24.32 -13 25 C-11.07949388 24.60140439 -9.16364288 24.18034074 -7.25 23.75 C-6.18265625 23.51796875 -5.1153125 23.2859375 -4.015625 23.046875 C-0.71331302 21.90047654 0.67281201 20.53684456 3 18 C3.66 18 4.32 18 5 18 C5 19.32 5 20.64 5 22 C-1.33438087 25.70276961 -6.57976961 28.25743197 -14 27 C-19.20801547 25.3507951 -22.54553204 23.24406064 -26 19 C-28.38176638 14.1230498 -28.89533694 8.35276709 -28 3 C-27.01 2.34 -26.02 1.68 -25 1 C-24.73445313 1.56589844 -24.46890625 2.13179688 -24.1953125 2.71484375 C-23.84210938 3.44832031 -23.48890625 4.18179688 -23.125 4.9375 C-22.77695313 5.66839844 -22.42890625 6.39929688 -22.0703125 7.15234375 C-21.1315023 9.16332459 -21.1315023 9.16332459 -19 10 C-15.12785818 10.43023798 -13.47503629 10.31669086 -10.1875 8.125 C-7.95999833 6.19494846 -7.95999833 6.19494846 -7 4 C-4.75343171 2.40656936 -2.4712584 1.25730691 0 0 Z " fill="#CAAE4D" transform="translate(95,83)"/>
<path d="M0 0 C0.99 0.66 1.98 1.32 3 2 C3.66 2 4.32 2 5 2 C5 3.32 5 4.64 5 6 C5.72445312 5.95359375 6.44890625 5.9071875 7.1953125 5.859375 C13.3659306 5.62900526 17.20628256 5.67396231 22 10 C25.59986344 13.89985206 27.88592565 17.43332706 28.125 22.8125 C28.08375 23.534375 28.0425 24.25625 28 25 C25.77616468 22.47291441 24.98104636 20.91312913 24.25 17.5625 C22.80688872 13.44963284 21.5930076 12.36460128 18.10351562 10.00561523 C14.35208664 8.21219184 10.69678667 8.51242412 6.625 8.75 C3.74923396 8.85869037 0.87751496 8.94066979 -2 9 C-2.33 8.67 -2.66 8.34 -3 8 C-4.34747084 7.76924918 -5.70377565 7.58846937 -7.0625 7.4375 C-8.361875 7.293125 -9.66125 7.14875 -11 7 C-11 7.66 -11 8.32 -11 9 C-10.34 9 -9.68 9 -9 9 C-7.66666667 13.66666667 -6.33333333 18.33333333 -5 23 C-7.67055431 21.99012652 -8.80669101 21.33172777 -10.265625 18.828125 C-13.83395383 9.48250186 -13.83395383 9.48250186 -13 5 C-9.03090779 -0.95363832 -6.91721986 -1.33490208 0 0 Z " fill="#784249" transform="translate(113,42)"/>
<path d="M0 0 C1.28355066 3.85065199 1.14874214 7.4888057 1.125 11.5 C1.12161621 12.30429443 1.11823242 13.10858887 1.11474609 13.93725586 C0.99782164 27.49097581 0.99782164 27.49097581 0 32 C-0.99 32.495 -0.99 32.495 -2 33 C-4.59448242 31.97729492 -4.59448242 31.97729492 -7 30 C-7.56762695 26.99731445 -7.56762695 26.99731445 -7.48828125 23.36328125 C-7.47216797 22.06455078 -7.45605469 20.76582031 -7.43945312 19.42773438 C-7.39767609 18.05597301 -7.35535135 16.68422823 -7.3125 15.3125 C-7.28741745 13.92907618 -7.26460418 12.54560923 -7.24414062 11.16210938 C-7.18510827 7.77365236 -7.10280082 4.38736615 -7 1 C-4.53721199 -0.231394 -2.7204945 -0.07159196 0 0 Z " fill="#072A40" transform="translate(65,113)"/>
<path d="M0 0 C0.33 0.99 0.66 1.98 1 3 C1.66 3 2.32 3 3 3 C2.67 6.63 2.34 10.26 2 14 C-1.61973402 15.31626692 -4.09567131 16 -8 16 C-7.34 17.32 -6.68 18.64 -6 20 C-9.65316671 18.75023244 -10.78065836 18.32901247 -13 15 C-13.1875 11.875 -13.1875 11.875 -13 9 C-12 8 -12 8 -9.4375 7.9375 C-8.2309375 7.9684375 -8.2309375 7.9684375 -7 8 C-7 7.01 -7 6.02 -7 5 C-5.68 5 -4.36 5 -3 5 C-2.67 3.68 -2.34 2.36 -2 1 C-1.34 1.33 -0.68 1.66 0 2 C0 1.34 0 0.68 0 0 Z " fill="#B5A44D" transform="translate(113,89)"/>
<path d="M0 0 C0.66 1.98 1.32 3.96 2 6 C0.68 6.33 -0.64 6.66 -2 7 C-2 6.34 -2 5.68 -2 5 C-3.65 5.66 -5.3 6.32 -7 7 C-7 7.99 -7 8.98 -7 10 C-6.01 10.33 -5.02 10.66 -4 11 C-6 13 -6 13 -8.625 13.125 C-9.40875 13.08375 -10.1925 13.0425 -11 13 C-10.84402344 13.68707031 -10.68804687 14.37414062 -10.52734375 15.08203125 C-10.23537109 16.43361328 -10.23537109 16.43361328 -9.9375 17.8125 C-9.74027344 18.70582031 -9.54304688 19.59914063 -9.33984375 20.51953125 C-9 23 -9 23 -10 26 C-12.99026553 24.9747661 -15.04196679 23.9653774 -17.5 21.9375 C-20.1185132 19.90815227 -21.75366288 19.37100996 -25 19 C-25 18.34 -25 17.68 -25 17 C-19.41704012 17.76131271 -15.8286386 18.78849754 -12 23 C-12.32226562 22.43152344 -12.64453125 21.86304687 -12.9765625 21.27734375 C-14.6479785 17.55812419 -14.56706052 13.99813553 -14 10 C-11.24209552 5.14608811 -5.78854302 0 0 0 Z " fill="#D0AE43" transform="translate(123,65)"/>
<path d="M0 0 C1.78879048 2.68318573 2.81376932 5.03442329 4 8 C4.99 9.485 4.99 9.485 6 11 C6.99600269 16.60906776 7.63140602 22.0356257 5.875 27.5 C2.2298225 32.36023666 -1.25094197 35.81535795 -7 38 C-13.17647059 38.41176471 -13.17647059 38.41176471 -16 37 C-16 36.34 -16 35.68 -16 35 C-15.04738281 34.93683594 -14.09476562 34.87367187 -13.11328125 34.80859375 C-5.158625 34.36276714 -5.158625 34.36276714 1.375 30.4375 C4.73162763 24.35116352 3.33907792 15.69867277 3 9 C2.34 9 1.68 9 1 9 C0.67 6.03 0.34 3.06 0 0 Z " fill="#C8B775" transform="translate(125,73)"/>
<path d="M0 0 C2.72681144 2.72681144 2.22656896 4.5114365 2.4375 8.3125 C2.76990247 11.83642386 2.76990247 11.83642386 4 15 C7.40339876 17.60290284 10.88825101 18.87923899 15 20 C15 20.66 15 21.32 15 22 C16.92050612 21.60140439 18.83635712 21.18034074 20.75 20.75 C21.81734375 20.51796875 22.8846875 20.2859375 23.984375 20.046875 C27.28668698 18.90047654 28.67281201 17.53684456 31 15 C31.66 15 32.32 15 33 15 C33 16.32 33 17.64 33 19 C26.66561913 22.70276961 21.42023039 25.25743197 14 24 C8.79198453 22.3507951 5.45446796 20.24406064 2 16 C-0.52712481 10.82541111 -0.20019504 5.62770507 0 0 Z " fill="#CCB868" transform="translate(67,86)"/>
<path d="M0 0 C0.66 0 1.32 0 2 0 C2 0.66 2 1.32 2 2 C2.7425 2.04125 3.485 2.0825 4.25 2.125 C8.15694537 3.36811898 9.06795028 5.48090945 11 9 C12.23633437 12.40521809 11.83572458 14.61885584 10.8125 18.0625 C10.45091797 19.34833984 10.45091797 19.34833984 10.08203125 20.66015625 C8.82765204 23.37269469 7.49813315 24.42250391 5 26 C3.68 24.35 2.36 22.7 1 21 C1.66 20.34 2.32 19.68 3 19 C3.33 19.33 3.66 19.66 4 20 C4.66 20 5.32 20 6 20 C5.67 19.236875 5.34 18.47375 5 17.6875 C3.83179534 14.54794998 3.5960424 12.88365724 5 9.8125 C5.495 8.9153125 5.495 8.9153125 6 8 C6.66 9.32 7.32 10.64 8 12 C8.15811388 8.94729537 8.15811388 8.94729537 7 6 C6.01 5.690625 5.02 5.38125 4 5.0625 C3.01 4.711875 2.02 4.36125 1 4 C0.125 1.875 0.125 1.875 0 0 Z " fill="#8C2F38" transform="translate(79,66)"/>
<path d="M0 0 C0 1.32 0 2.64 0 4 C-0.54269531 4.18433594 -1.08539063 4.36867188 -1.64453125 4.55859375 C-4.95558879 5.90091437 -7.3818169 6.8881002 -9.1640625 10.09375 C-10.22293175 13.30244469 -10.91864489 16.40339583 -11.375 19.75 C-12.30047099 23.08169558 -14.47892007 24.73749237 -17 27 C-16.52336551 24.8551448 -16.04410782 22.71141692 -15.55078125 20.5703125 C-15.20368479 18.950529 -14.9026275 17.31953804 -14.66796875 15.6796875 C-13.64898958 9.25228043 -10.74790029 5.38956819 -6 1 C-4 0 -4 0 0 0 Z " fill="#C2A94C" transform="translate(96,31)"/>
<path d="M0 0 C0.66 0 1.32 0 2 0 C1.36887699 3.55086383 0.46782404 6.81580999 -0.8125 10.1875 C-1.12832031 11.04730469 -1.44414063 11.90710938 -1.76953125 12.79296875 C-3.24091645 15.43211998 -4.16893193 16.03404574 -7 17 C-9.2890625 17.37890625 -9.2890625 17.37890625 -11.625 17.5625 C-14.93666003 17.81884544 -14.93666003 17.81884544 -18 19 C-18 18.34 -18 17.68 -18 17 C-19.32 16.67 -20.64 16.34 -22 16 C-21.67 14.68 -21.34 13.36 -21 12 C-20.67 12.99 -20.34 13.98 -20 15 C-19.14728516 14.7834375 -19.14728516 14.7834375 -18.27734375 14.5625 C-13.37737795 13.38454495 -9.0354688 12.78572473 -4 13 C-3.87882812 12.22914062 -3.75765625 11.45828125 -3.6328125 10.6640625 C-3.46523437 9.66117188 -3.29765625 8.65828125 -3.125 7.625 C-2.96257812 6.62726562 -2.80015625 5.62953125 -2.6328125 4.6015625 C-2 2 -2 2 0 0 Z " fill="#CFAD5A" transform="translate(99,49)"/>
<path d="M0 0 C2.475 0.99 2.475 0.99 5 2 C1.92482916 12.55808656 1.92482916 12.55808656 0 17 C-2 16 -2 16 -4 14 C-4.39256325 10.90856441 -4.62064716 8.95404178 -4 6 C-2 3.625 -2 3.625 0 2 C0 1.34 0 0.68 0 0 Z " fill="#172834" transform="translate(77,47)"/>
<path d="M0 0 C6.21668598 2.18424102 6.21668598 2.18424102 8 5 C8.45216126 8.92969242 8.25215962 12.24352115 7 16 C5.68 15.67 4.36 15.34 3 15 C2.49363393 13.25183142 1.99515381 11.50137737 1.5 9.75 C1.2215625 8.77546875 0.943125 7.8009375 0.65625 6.796875 C0 4 0 4 0 0 Z " fill="#182A35" transform="translate(124,65)"/>
<path d="M0 0 C1.9375 1.375 1.9375 1.375 3 3 C3 3.99 3 4.98 3 6 C-1.95 6 -6.9 6 -12 6 C-11 2 -11 2 -9.375 0.1875 C-5.92246609 -1.53876696 -3.67500368 -0.93545548 0 0 Z " fill="#1D2F30" transform="translate(113,42)"/>
<path d="M0 0 C1.231394 3.69418201 0.64432764 6.2056261 0 10 C-0.309375 9.360625 -0.61875 8.72125 -0.9375 8.0625 C-1.8345163 6.06389179 -1.8345163 6.06389179 -3 5 C-3.66 5 -4.32 5 -5 5 C-4.835 5.68191406 -4.67 6.36382812 -4.5 7.06640625 C-3.73511951 11.5541035 -3.98346442 15.98773737 -4.0625 20.52734375 C-4.00283545 23.84245549 -3.82309868 26.78710913 -3 30 C-2.01 30.66 -1.02 31.32 0 32 C-0.99 32.495 -0.99 32.495 -2 33 C-4.59448242 31.97729492 -4.59448242 31.97729492 -7 30 C-7.56762695 26.99731445 -7.56762695 26.99731445 -7.48828125 23.36328125 C-7.47216797 22.06455078 -7.45605469 20.76582031 -7.43945312 19.42773438 C-7.39767609 18.05597301 -7.35535135 16.68422823 -7.3125 15.3125 C-7.28741745 13.92907618 -7.26460418 12.54560923 -7.24414062 11.16210938 C-7.18510827 7.77365236 -7.10280082 4.38736615 -7 1 C-4.53721199 -0.231394 -2.7204945 -0.07159196 0 0 Z " fill="#0C2738" transform="translate(65,113)"/>
<path d="M0 0 C0.3125 3.25 0.3125 3.25 0 7 C-2.0625 9.4375 -2.0625 9.4375 -5 11 C-8.8125 11.25 -8.8125 11.25 -12 11 C-12 9.68 -12 8.36 -12 7 C-9.8828125 5.078125 -9.8828125 5.078125 -7.125 3.25 C-6.22007813 2.63640625 -5.31515625 2.0228125 -4.3828125 1.390625 C-2 0 -2 0 0 0 Z " fill="#0D2B34" transform="translate(114,93)"/>
<path d="M0 0 C2.99254618 1.40191353 5.5954611 3.03367489 8.25 5 C8.95640625 5.515625 9.6628125 6.03125 10.390625 6.5625 C11.18726562 7.2740625 11.18726562 7.2740625 12 8 C12 8.66 12 9.32 12 10 C9.15916359 11.42041821 7.14522722 11.31452272 4 11 C0.91044795 8.82896342 0.1237654 7.4855412 -0.8125 3.8125 C-0.874375 2.884375 -0.93625 1.95625 -1 1 C-0.67 0.67 -0.34 0.34 0 0 Z " fill="#1B2A30" transform="translate(72,83)"/>
<path d="M0 0 C1.0635774 3.19073219 0.89019883 3.93375957 0 7 C0 7.66 0 8.32 0 9 C-0.66 9 -1.32 9 -2 9 C-2 9.66 -2 10.32 -2 11 C-4.31 12.32 -6.62 13.64 -9 15 C-10 13 -10 13 -9.43359375 10.72265625 C-6.717523 3.46914965 -6.717523 3.46914965 -2.75 0.875 C-1.38875 0.441875 -1.38875 0.441875 0 0 Z " fill="#D4AF33" transform="translate(94,35)"/>
<path d="M0 0 C6.64453639 -0.54241113 10.55597579 0.05041381 16 4 C19.11355548 7.19549115 20.49233162 9.55790165 21 14 C18 14 18 14 15 12 C10.92146505 12.14831036 8.712576 12.39705108 5.5625 15.0625 C4.7890625 16.0215625 4.7890625 16.0215625 4 17 C4.3125 14.625 4.3125 14.625 5 12 C8.20380017 9.86413322 9.01939967 9.76867825 12.6875 9.875 C13.89986328 9.90207031 13.89986328 9.90207031 15.13671875 9.9296875 C16.05904297 9.96449219 16.05904297 9.96449219 17 10 C15.11737164 5.64071007 12.33291253 3.75160294 8 2 C5.29905931 1.42964429 2.76561448 1.19407821 0 1 C0 0.67 0 0.34 0 0 Z " fill="#C2B067" transform="translate(96,30)"/>
<path d="M0 0 C0.66 0.33 1.32 0.66 2 1 C0.47005208 2.13932292 -1.05989583 3.27864583 -2.58984375 4.41796875 C-4.51873258 6.58195761 -4.76686679 8.12610334 -5 11 C-4.45241353 13.62989948 -4.45241353 13.62989948 -3.5 16.1875 C-2.9479924 17.77452184 -2.43652001 19.37740918 -2 21 C-2.33 21.66 -2.66 22.32 -3 23 C-5.99026553 21.9747661 -8.04196679 20.9653774 -10.5 18.9375 C-13.1185132 16.90815227 -14.75366288 16.37100996 -18 16 C-18 15.34 -18 14.68 -18 14 C-12.41704012 14.76131271 -8.8286386 15.78849754 -5 20 C-5.32226562 19.43152344 -5.64453125 18.86304687 -5.9765625 18.27734375 C-7.64294547 14.56932364 -7.59081233 10.98620366 -7 7 C-4.94161475 3.66399633 -3.2606736 2.1737824 0 0 Z " fill="#CDB871" transform="translate(116,68)"/>
<path d="M0 0 C5.4180602 -0.36120401 5.4180602 -0.36120401 7.8125 1.125 C9.42228269 3.66676215 9.67109009 6.0398108 10 9 C9.525625 8.505 9.05125 8.01 8.5625 7.5 C7.24076302 5.88457803 7.24076302 5.88457803 6 6 C4.60804085 10.17587745 6.17676781 12.13474776 8 16 C7.34 16.33 6.68 16.66 6 17 C5.3291288 15.3767313 4.66342971 13.75132422 4 12.125 C3.62875 11.22007812 3.2575 10.31515625 2.875 9.3828125 C2 7 2 7 2 5 C1.34 4.67 0.68 4.34 0 4 C0 2.68 0 1.36 0 0 Z " fill="#0B2231" transform="translate(110,122)"/>
<path d="M0 0 C2.875 -0.1875 2.875 -0.1875 6 0 C8.4294516 3.6441774 8.16179575 5.71241272 8 10 C8.66 10 9.32 10 10 10 C10.66 7.69 11.32 5.38 12 3 C12.66 4.32 13.32 5.64 14 7 C13.07456291 8.34173403 12.13422595 9.67320159 11.1875 11 C10.40439453 12.11375 10.40439453 12.11375 9.60546875 13.25 C9.07566406 13.8275 8.54585937 14.405 8 15 C7.01 15 6.02 15 5 15 C5.05800781 14.33613281 5.11601562 13.67226562 5.17578125 12.98828125 C5.58310864 7.88251083 5.58310864 7.88251083 3.88671875 3.22265625 C2.38431777 1.70538271 2.38431777 1.70538271 0 0 Z " fill="#673841" transform="translate(126,65)"/>
<path d="M0 0 C0.99 0 1.98 0 3 0 C3.86625 -0.020625 4.7325 -0.04125 5.625 -0.0625 C8 0 8 0 9 1 C9.07271741 3.35313555 9.08370868 5.70833668 9.0625 8.0625 C9.05347656 9.35285156 9.04445312 10.64320313 9.03515625 11.97265625 C9.02355469 12.97167969 9.01195312 13.97070312 9 15 C8.67 15 8.34 15 8 15 C7.67 11.04 7.34 7.08 7 3 C5.68 3.33 4.36 3.66 3 4 C3.309375 5.6396875 3.309375 5.6396875 3.625 7.3125 C4 11 4 11 2 14 C1.690625 13.030625 1.38125 12.06125 1.0625 11.0625 C0.30476658 8.15934208 0.30476658 8.15934208 -1 7 C-0.71269945 4.66055264 -0.38063221 2.3260857 0 0 Z " fill="#062032" transform="translate(159,122)"/>
<path d="M0 0 C2 0.8125 2 0.8125 3.25 2.875 C3.4975 3.514375 3.745 4.15375 4 4.8125 C3.34 4.8125 2.68 4.8125 2 4.8125 C1.67 6.1325 1.34 7.4525 1 8.8125 C-1.86724686 8.23905063 -2.8614515 7.9510485 -5 5.8125 C-4.75 3.25 -4.75 3.25 -4 0.8125 C-2 -0.1875 -2 -0.1875 0 0 Z " fill="#08202F" transform="translate(140,113.1875)"/>
<path d="M0 0 C0.33 0.66 0.66 1.32 1 2 C1.66 2.33 2.32 2.66 3 3 C3.4140625 5.06640625 3.4140625 5.06640625 3.625 7.5625 C3.69976562 8.38878906 3.77453125 9.21507812 3.8515625 10.06640625 C3.90054688 10.70449219 3.94953125 11.34257812 4 12 C2.02 12.99 2.02 12.99 0 14 C-0.99 13.01 -1.98 12.02 -3 11 C-2.690625 9.9275 -2.38125 8.855 -2.0625 7.75 C-1.33187904 5.17133778 -0.62517096 2.60487898 0 0 Z " fill="#062A42" transform="translate(70,128)"/>
<path d="M0 0 C0.66 0 1.32 0 2 0 C2 0.66 2 1.32 2 2 C2.7425 2.04125 3.485 2.0825 4.25 2.125 C8.15694537 3.36811898 9.06795028 5.48090945 11 9 C12.27979495 12.47063037 11.77649633 14.69342173 10.6875 18.1875 C10.42324219 19.06792969 10.15898438 19.94835937 9.88671875 20.85546875 C9 23 9 23 7 24 C6.85047654 20.26191361 6.84901227 17.41941037 8.125 13.875 C9.22523478 11.04712414 9.22523478 11.04712414 8.5 8.25 C6.47948211 5.21922317 4.39149574 5.08239226 1 4 C0.125 1.875 0.125 1.875 0 0 Z " fill="#7B4347" transform="translate(79,66)"/>
<path d="M0 0 C1.78879048 2.68318573 2.81376932 5.03442329 4 8 C4.99 9.485 4.99 9.485 6 11 C7.25494003 16.43807347 6.78091653 19.86677001 5 25 C3 23 3 23 2.8046875 19.7421875 C2.82789062 18.46601562 2.85109375 17.18984375 2.875 15.875 C2.89304687 14.59367187 2.91109375 13.31234375 2.9296875 11.9921875 C2.95289062 11.00476563 2.97609375 10.01734375 3 9 C2.34 9 1.68 9 1 9 C0.67 6.03 0.34 3.06 0 0 Z " fill="#BEA955" transform="translate(125,73)"/>
<path d="M0 0 C1.1446875 0.12375 1.1446875 0.12375 2.3125 0.25 C1.3225 0.91 0.3325 1.57 -0.6875 2.25 C-1.05166047 4.68693311 -1.05166047 4.68693311 -0.875 7.375 C-0.84792969 8.28507813 -0.82085937 9.19515625 -0.79296875 10.1328125 C-0.75816406 10.83148438 -0.72335938 11.53015625 -0.6875 12.25 C-3.6575 11.755 -3.6575 11.755 -6.6875 11.25 C-6.6875 10.59 -6.6875 9.93 -6.6875 9.25 C-6.0275 9.25 -5.3675 9.25 -4.6875 9.25 C-4.914375 8.5075 -5.14125 7.765 -5.375 7 C-5.6875 4.25 -5.6875 4.25 -4.5625 1.9375 C-2.6875 0.25 -2.6875 0.25 0 0 Z " fill="#06273D" transform="translate(39.6875,124.75)"/>
<path d="M0 0 C0 0.99 0 1.98 0 3 C-0.99 3.33 -1.98 3.66 -3 4 C-3.33 4.99 -3.66 5.98 -4 7 C-2.68 7.33 -1.36 7.66 0 8 C-0.33 9.32 -0.66 10.64 -1 12 C-2.32 11.34 -3.64 10.68 -5 10 C-5.66 11.32 -6.32 12.64 -7 14 C-8.13298556 10.60104332 -7.85659602 9.73016562 -6.75 6.4375 C-6.49734375 5.65246094 -6.2446875 4.86742188 -5.984375 4.05859375 C-4.6574221 1.28357717 -3.15239363 0 0 0 Z " fill="#081E2F" transform="translate(94,123)"/>
<path d="M0 0 C0.99 0.495 0.99 0.495 2 1 C2 1.99 2 2.98 2 4 C2.66 4 3.32 4 4 4 C5.33333333 8.66666667 6.66666667 13.33333333 8 18 C5.32944569 16.99012652 4.19330899 16.33172777 2.734375 13.828125 C0.92332721 9.0849046 -0.5444976 5.17272716 0 0 Z " fill="#7B3B3A" transform="translate(100,47)"/>
<path d="M0 0 C1.32 0.33 2.64 0.66 4 1 C4 4 4 7 4 10 C3.01 10.33 2.02 10.66 1 11 C0.34 10.67 -0.32 10.34 -1 10 C-1.33 10.66 -1.66 11.32 -2 12 C-2.33 11.01 -2.66 10.02 -3 9 C-2.01 8.67 -1.02 8.34 0 8 C-0.185625 7.236875 -0.37125 6.47375 -0.5625 5.6875 C-1 3 -1 3 0 0 Z " fill="#082D43" transform="translate(104,131)"/>
<path d="M0 0 C4.88925715 1.39693061 7.05441957 3.93987562 10 8 C11.78170119 11.47855946 12.22245644 14.10701232 12 18 C9.77616468 15.47291441 8.98104636 13.91312913 8.25 10.5625 C6.75777496 6.30965865 5.20237182 5.28019376 1.4609375 3.04296875 C0.97882813 2.69878906 0.49671875 2.35460938 0 2 C0 1.34 0 0.68 0 0 Z " fill="#753B44" transform="translate(129,49)"/>
<path d="M0 0 C1.67542976 0.28604898 3.34385343 0.61781233 5 1 C5.33 2.98 5.66 4.96 6 7 C3.69 7 1.38 7 -1 7 C-1.04254356 5.00045254 -1.04080783 2.99958364 -1 1 C-0.67 0.67 -0.34 0.34 0 0 Z " fill="#010407" transform="translate(109,149)"/>
<path d="M0 0 C0.33 0.66 0.66 1.32 1 2 C1.66 2.33 2.32 2.66 3 3 C1.9375 5.5 1.9375 5.5 0 8 C-3.6875 8.3125 -3.6875 8.3125 -7 8 C-7.66 6.35 -8.32 4.7 -9 3 C-7.02 3 -5.04 3 -3 3 C-2.67 3.99 -2.34 4.98 -2 6 C-1.34 4.02 -0.68 2.04 0 0 Z " fill="#0A2137" transform="translate(126,137)"/>
<path d="M0 0 C1.231394 3.69418201 0.64432764 6.2056261 0 10 C-0.309375 9.360625 -0.61875 8.72125 -0.9375 8.0625 C-1.8345163 6.06389179 -1.8345163 6.06389179 -3 5 C-3.66 5 -4.32 5 -5 5 C-5.33 5.66 -5.66 6.32 -6 7 C-6.33 5.02 -6.66 3.04 -7 1 C-4.53721199 -0.231394 -2.7204945 -0.07159196 0 0 Z " fill="#0C212A" transform="translate(65,113)"/>
<path d="M0 0 C2.97 0.495 2.97 0.495 6 1 C6 2.65 6 4.3 6 6 C4.35 6.33 2.7 6.66 1 7 C-0.0625 5.1875 -0.0625 5.1875 -1 3 C-0.67 2.01 -0.34 1.02 0 0 Z " fill="#081821" transform="translate(41,149)"/>
<path d="M0 0 C0.33 0 0.66 0 1 0 C1.85743651 4.39436211 2.08948558 8.52572076 2 13 C3.32 12.34 4.64 11.68 6 11 C6 12.32 6 13.64 6 15 C4.02 15 2.04 15 0 15 C-1.09651823 11.58860997 -0.94215473 8.79344419 -0.5625 5.25 C-0.46066406 4.26515625 -0.35882813 3.2803125 -0.25390625 2.265625 C-0.17011719 1.51796875 -0.08632812 0.7703125 0 0 Z " fill="#10212F" transform="translate(136,130)"/>
<path d="M0 0 C0.58652344 0.2165625 1.17304687 0.433125 1.77734375 0.65625 C1.1740625 0.97335938 0.57078125 1.29046875 -0.05078125 1.6171875 C-6.71467676 5.50804262 -9.13922828 9.28412024 -11.22265625 16.65625 C-12.35538063 13.05355718 -12.00686953 10.95086538 -10.375 7.4765625 C-8.09460141 3.87430574 -4.57446007 -0.70747361 0 0 Z " fill="#D1BD78" transform="translate(94.22265625,31.34375)"/>
<path d="M0 0 C2.125 0.375 2.125 0.375 4 1 C4 2.98 4 4.96 4 7 C0.25 8.125 0.25 8.125 -2 7 C-2.125 4.625 -2.125 4.625 -2 2 C-1.34 1.34 -0.68 0.68 0 0 Z " fill="#08141E" transform="translate(118,149)"/>
<path d="M0 0 C0.66 0 1.32 0 2 0 C2 1.32 2 2.64 2 4 C-4.6276327 7.8741903 -9.29711007 9.6212008 -17 9 C-17 8.67 -17 8.34 -17 8 C-16.02160156 7.85304688 -16.02160156 7.85304688 -15.0234375 7.703125 C-9.38000545 6.73758205 -5.44905046 5.65050294 -1 2 C-0.67 1.34 -0.34 0.68 0 0 Z " fill="#C2B167" transform="translate(98,101)"/>
<path d="M0 0 C1.9375 0.1875 1.9375 0.1875 4 1 C5.25 3.0625 5.25 3.0625 6 5 C3.525 6.485 3.525 6.485 1 8 C-1 6 -1 6 -1.1875 3.4375 C-1 1 -1 1 0 0 Z " fill="#0C1D25" transform="translate(147,149)"/>
<path d="M0 0 C1.32 0 2.64 0 4 0 C4.33 1.98 4.66 3.96 5 6 C4.01 6.66 3.02 7.32 2 8 C1.01 7.67 0.02 7.34 -1 7 C-1.625 4.625 -1.625 4.625 -2 2 C-1.34 1.34 -0.68 0.68 0 0 Z " fill="#06171E" transform="translate(131,149)"/>
<path d="M0 0 C2.125 0.375 2.125 0.375 4 1 C4 2.65 4 4.3 4 6 C2.02 6.99 2.02 6.99 0 8 C-0.66 6.02 -1.32 4.04 -2 2 C-1.34 1.34 -0.68 0.68 0 0 Z " fill="#102332" transform="translate(51,149)"/>
<path d="M0 0 C2 0.25 2 0.25 4 1 C5 4 5 4 4.0625 6.1875 C3.5365625 7.0846875 3.5365625 7.0846875 3 8 C1.68 8 0.36 8 -1 8 C-1.04241723 5.66705225 -1.04092937 3.33297433 -1 1 C-0.67 0.67 -0.34 0.34 0 0 Z " fill="#0D1B22" transform="translate(164,149)"/>
<path d="M0 0 C1.65 0 3.3 0 5 0 C5.33 1.98 5.66 3.96 6 6 C4.68 6.33 3.36 6.66 2 7 C0.4375 5.1875 0.4375 5.1875 -1 3 C-0.67 2.01 -0.34 1.02 0 0 Z " fill="#0A171D" transform="translate(80,150)"/>
<path d="M0 0 C1.32 1.32 2.64 2.64 4 4 C3.67 4.99 3.34 5.98 3 7 C1.35 7 -0.3 7 -2 7 C-2.6875 5.1875 -2.6875 5.1875 -3 3 C-1.5625 1.25 -1.5625 1.25 0 0 Z " fill="#0C222C" transform="translate(35,149)"/>
<path d="M0 0 C2.475 0.99 2.475 0.99 5 2 C4.75 3.875 4.75 3.875 4 6 C1.9375 7.25 1.9375 7.25 0 8 C-1 7 -1 7 -1.125 4 C-1 1 -1 1 0 0 Z " fill="#07121E" transform="translate(67,149)"/>
<path d="M0 0 C2.5 1.3125 2.5 1.3125 5 3 C5 3.99 5 4.98 5 6 C3.35 6.66 1.7 7.32 0 8 C-1 7 -1 7 -1.125 4 C-1 1 -1 1 0 0 Z " fill="#072B43" transform="translate(89,132)"/>
<path d="M0 0 C-1.0625 1.5 -1.0625 1.5 -3 3 C-9.13846154 3.43076923 -9.13846154 3.43076923 -12 2 C-12 1.34 -12 0.68 -12 0 C-10.37585622 -0.19477739 -8.75063577 -0.38059458 -7.125 -0.5625 C-6.22007813 -0.66691406 -5.31515625 -0.77132812 -4.3828125 -0.87890625 C-2 -1 -2 -1 0 0 Z " fill="#BCAB5D" transform="translate(121,108)"/>
<path d="M0 0 C0.99 0.33 1.98 0.66 3 1 C3.33 1.99 3.66 2.98 4 4 C3.01 5.485 3.01 5.485 2 7 C0.68 7 -0.64 7 -2 7 C-2.33 6.01 -2.66 5.02 -3 4 C-1.5625 1.8125 -1.5625 1.8125 0 0 Z " fill="#070E14" transform="translate(90,149)"/>
<path d="M0 0 C2.2477975 2.05233685 3.0022242 3.00667261 4 6 C3.01 6.495 3.01 6.495 2 7 C1.34 6.67 0.68 6.34 0 6 C-0.33 6.66 -0.66 7.32 -1 8 C-1.66 6.68 -2.32 5.36 -3 4 C-2.01 2.68 -1.02 1.36 0 0 Z " fill="#0D232D" transform="translate(60,149)"/>
<path d="M0 0 C0.99 0.33 1.98 0.66 3 1 C3.66 0.67 4.32 0.34 5 0 C5.33 1.98 5.66 3.96 6 6 C4.34385343 6.38218767 2.67542976 6.71395102 1 7 C0 6 0 6 -0.0625 2.9375 C-0.041875 1.968125 -0.02125 0.99875 0 0 Z " fill="#11222C" transform="translate(138,149)"/>
<path d="M0 0 C-0.33 1.65 -0.66 3.3 -1 5 C-1.99 5.33 -2.98 5.66 -4 6 C-5.65 4.35 -7.3 2.7 -9 1 C-5.846632 0.29925156 -3.27275026 0 0 0 Z " fill="#062944" transform="translate(105,124)"/>
<path d="M0 0 C0.33 0.66 0.66 1.32 1 2 C2.32 1.67 3.64 1.34 5 1 C5 2.65 5 4.3 5 6 C4.34 6 3.68 6 3 6 C2.67 6.66 2.34 7.32 2 8 C0.4375 5.6875 0.4375 5.6875 -1 3 C-0.67 2.01 -0.34 1.02 0 0 Z " fill="#0E1C26" transform="translate(155,149)"/>
<path d="M0 0 C0.66 0.99 1.32 1.98 2 3 C1.34 3.66 0.68 4.32 0 5 C0 5.99 0 6.98 0 8 C-3 8 -3 8 -4.6875 6.5 C-5.120625 6.005 -5.55375 5.51 -6 5 C-5.34 5 -4.68 5 -4 5 C-3.67 4.34 -3.34 3.68 -3 3 C-2.01 3 -1.02 3 0 3 C0 2.01 0 1.02 0 0 Z " fill="#041F2F" transform="translate(94,135)"/>
<path d="M0 0 C0.3669579 6.48292295 0.3669579 6.48292295 -1.375 8.9375 C-3 10 -3 10 -5 10 C-5 9.34 -5 8.68 -5 8 C-4.34 8 -3.68 8 -3 8 C-3 7.01 -3 6.02 -3 5 C-2.34 5 -1.68 5 -1 5 C-1 4.34 -1 3.68 -1 3 C-2.32 2.67 -3.64 2.34 -5 2 C-2 0 -2 0 0 0 Z " fill="#213219" transform="translate(114,93)"/>
<path d="M0 0 C0.33 1.32 0.66 2.64 1 4 C0.01 4.33 -0.98 4.66 -2 5 C-2.33 5.66 -2.66 6.32 -3 7 C-3 6.01 -3 5.02 -3 4 C-3.66 4 -4.32 4 -5 4 C-5.33 4.66 -5.66 5.32 -6 6 C-6.66 4.68 -7.32 3.36 -8 2 C-7.05125 2.04125 -6.1025 2.0825 -5.125 2.125 C-1.89755144 2.34973818 -1.89755144 2.34973818 0 0 Z " fill="#061D31" transform="translate(160,136)"/>
<path d="M0 0 C1.61363928 3.22727857 0.08456242 5.68923051 -1 9 C-1.64775627 10.34262208 -2.3101489 11.67851308 -3 13 C-3.4726477 4.80743982 -3.4726477 4.80743982 -1.5 1.4375 C-0.7575 0.7259375 -0.7575 0.7259375 0 0 Z " fill="#0B1E2D" transform="translate(70,124)"/>
<path d="M0 0 C2.875 -0.1875 2.875 -0.1875 6 0 C8.4294516 3.6441774 8.16179575 5.71241272 8 10 C7.67 10 7.34 10 7 10 C7 8.02 7 6.04 7 4 C6.401875 3.896875 5.80375 3.79375 5.1875 3.6875 C2.71756736 2.91123545 1.67748765 1.92911079 0 0 Z " fill="#7B3446" transform="translate(126,65)"/>
<path d="M0 0 C0.66 0 1.32 0 2 0 C1.45276317 3.37462715 0.9451 5.08235 -1 8 C-1.99 8.495 -1.99 8.495 -3 9 C-2.25 2.25 -2.25 2.25 0 0 Z " fill="#C59E5C" transform="translate(99,49)"/>
<path d="M0 0 C1.32 0 2.64 0 4 0 C4.66 1.65 5.32 3.3 6 5 C4.68 5.99 3.36 6.98 2 8 C2 6.02 2 4.04 2 2 C1.34 2 0.68 2 0 2 C0 1.34 0 0.68 0 0 Z " fill="#0A202E" transform="translate(81,137)"/>
<path d="M0 0 C0.66 0.66 1.32 1.32 2 2 C4.32275177 2.40047444 6.65739357 2.7397104 9 3 C7.68 3.33 6.36 3.66 5 4 C5.66 5.32 6.32 6.64 7 8 C3.34683329 6.75023244 2.21934164 6.32901247 0 3 C0 2.01 0 1.02 0 0 Z " fill="#999458" transform="translate(100,101)"/>
<path d="M0 0 C0.99 0.66 1.98 1.32 3 2 C2.67 3.65 2.34 5.3 2 7 C0.0625 6.25 0.0625 6.25 -2 5 C-2.75 2.875 -2.75 2.875 -3 1 C-2.01 0.67 -1.02 0.34 0 0 Z " fill="#0E1419" transform="translate(103,149)"/>
<path d="M0 0 C1.32 0.66 2.64 1.32 4 2 C3.360625 2.12375 2.72125 2.2475 2.0625 2.375 C1.381875 2.58125 0.70125 2.7875 0 3 C-0.33 3.66 -0.66 4.32 -1 5 C-3.64 4.67 -6.28 4.34 -9 4 C-5.77208445 1.8480563 -4.71599191 1.79913557 -1 2 C-0.67 1.34 -0.34 0.68 0 0 Z " fill="#07202C" transform="translate(103,141)"/>
<path d="M0 0 C-0.99 0 -1.98 0 -3 0 C-2.67 0.99 -2.34 1.98 -2 3 C-2.66 3 -3.32 3 -4 3 C-4.33 3.66 -4.66 4.32 -5 5 C-6.5 3.625 -6.5 3.625 -8 2 C-8 1.34 -8 0.68 -8 0 C-4.94736336 -0.98120464 -3.05263664 -0.98120464 0 0 Z " fill="#CFB050" transform="translate(113,105)"/>
<path d="M0 0 C0.66 0 1.32 0 2 0 C2.66 0.66 3.32 1.32 4 2 C4.66 1.67 5.32 1.34 6 1 C5.67 2.65 5.34 4.3 5 6 C2.525 5.01 2.525 5.01 0 4 C0 2.68 0 1.36 0 0 Z " fill="#0E2D41" transform="translate(50,140)"/>
<path d="M0 0 C0.66 0 1.32 0 2 0 C2 0.99 2 1.98 2 3 C1.34 3 0.68 3 0 3 C-0.33 4.32 -0.66 5.64 -1 7 C-2.32 6.67 -3.64 6.34 -5 6 C-4 3 -4 3 -1.9375 1.8125 C-1.298125 1.544375 -0.65875 1.27625 0 1 C0 0.67 0 0.34 0 0 Z " fill="#07222F" transform="translate(48,135)"/>
<path d="M0 0 C0.66 0.66 1.32 1.32 2 2 C2.99 1.67 3.98 1.34 5 1 C5 2.65 5 4.3 5 6 C4.01 6 3.02 6 2 6 C0.3125 3.5 0.3125 3.5 -1 1 C-0.67 0.67 -0.34 0.34 0 0 Z " fill="#80373A" transform="translate(81,85)"/>
<path d="M0 0 C0.66 0.33 1.32 0.66 2 1 C2.73075648 3.3140622 3.40138258 5.64828869 4 8 C2.68 7.67 1.36 7.34 0 7 C-0.38133299 5.0085944 -0.71325582 3.00720923 -1 1 C-0.67 0.67 -0.34 0.34 0 0 Z " fill="#AC9F61" transform="translate(69,84)"/>
<path d="M0 0 C1.98 0.99 1.98 0.99 4 2 C3.67 2.99 3.34 3.98 3 5 C2.96079185 6.99961564 2.95556653 9.00049364 3 11 C0.43383368 7.15075052 0.44902324 4.5650696 0 0 Z " fill="#232A23" transform="translate(124,65)"/>
<path d="M0 0 C7.38461538 -0.36923077 7.38461538 -0.36923077 10.5 1.5 C10.995 1.995 11.49 2.49 12 3 C10.56163249 2.88541307 9.12429034 2.75790884 7.6875 2.625 C6.88699219 2.55539063 6.08648437 2.48578125 5.26171875 2.4140625 C3 2 3 2 0 0 Z " fill="#CFAE4E" transform="translate(96,31)"/>
<path d="M0 0 C1.26950234 3.0006419 0.98068499 4.05184556 -0.1875 7.1875 C-2 10 -2 10 -4.1875 10.875 C-5.0846875 10.936875 -5.0846875 10.936875 -6 11 C-6 10.34 -6 9.68 -6 9 C-5.071875 8.1028125 -5.071875 8.1028125 -4.125 7.1875 C-1.878516 4.87494294 -1.0093366 3.02800981 0 0 Z " fill="#D6C185" transform="translate(97,55)"/>
<path d="M0 0 C0.66 0.33 1.32 0.66 2 1 C2 2.65 2 4.3 2 6 C0.35 6 -1.3 6 -3 6 C-3 5.01 -3 4.02 -3 3 C-2.01 3 -1.02 3 0 3 C0 2.01 0 1.02 0 0 Z " fill="#0A1B27" transform="translate(112,149)"/>
<path d="M0 0 C1 3 1 3 0.0625 5.1875 C-0.4634375 6.0846875 -0.4634375 6.0846875 -1 7 C-1.66 6.67 -2.32 6.34 -3 6 C-3 4.35 -3 2.7 -3 1 C-2.01 0.67 -1.02 0.34 0 0 Z " fill="#062A40" transform="translate(140,137)"/>
<path d="M0 0 C0.763125 0.0825 1.52625 0.165 2.3125 0.25 C1.3225 0.91 0.3325 1.57 -0.6875 2.25 C-1.73854383 3.88495707 -2.74738318 5.54883624 -3.6875 7.25 C-4.3475 6.26 -5.0075 5.27 -5.6875 4.25 C-3.34903846 0.31153846 -3.34903846 0.31153846 0 0 Z " fill="#082D48" transform="translate(39.6875,124.75)"/>
<path d="M0 0 C1.98 0.66 3.96 1.32 6 2 C5.67 2.66 5.34 3.32 5 4 C2.69 4 0.38 4 -2 4 C-1.34 2.68 -0.68 1.36 0 0 Z " fill="#082D45" transform="translate(77,124)"/>
<path d="M0 0 C3.3 0 6.6 0 10 0 C9.01 0.66 8.02 1.32 7 2 C6.34 1.67 5.68 1.34 5 1 C4.67 1.66 4.34 2.32 4 3 C2.35 2.67 0.7 2.34 -1 2 C-0.67 1.34 -0.34 0.68 0 0 Z " fill="#091F2A" transform="translate(74,122)"/>
<path d="M0 0 C2.475 0.99 2.475 0.99 5 2 C4.34 4.31 3.68 6.62 3 9 C2.67 9 2.34 9 2 9 C1.34 6.03 0.68 3.06 0 0 Z " fill="#2E3024" transform="translate(77,47)"/>
<path d="M0 0 C0.99 0 1.98 0 3 0 C3.66 1.98 4.32 3.96 5 6 C4.34 6 3.68 6 3 6 C3 5.01 3 4.02 3 3 C1.35 3 -0.3 3 -2 3 C-1.34 2.01 -0.68 1.02 0 0 Z " fill="#B79A5F" transform="translate(120,65)"/>
<path d="M0 0 C0.33 0.99 0.66 1.98 1 3 C3.01508358 3.73323796 3.01508358 3.73323796 5 4 C4.67 4.99 4.34 5.98 4 7 C3.67 6.34 3.34 5.68 3 5 C0.97536745 4.34786708 0.97536745 4.34786708 -1 4 C-0.67 2.68 -0.34 1.36 0 0 Z " fill="#B38E65" transform="translate(78,61)"/>
<path d="M0 0 C3.00617269 3.00617269 2.59585316 5.82381598 3 10 C0.51280729 7.08025204 -0.58572305 4.83206182 -1 1 C-0.67 0.67 -0.34 0.34 0 0 Z " fill="#5E313D" transform="translate(138,57)"/>
<path d="M0 0 C0.99 0.66 1.98 1.32 3 2 C3 2.99 3 3.98 3 5 C1.68 5 0.36 5 -1 5 C-1.33 3.68 -1.66 2.36 -2 1 C-1.34 0.67 -0.68 0.34 0 0 Z " fill="#D1AE45" transform="translate(110,35)"/>
<path d="M0 0 C0.99 0 1.98 0 3 0 C3 1.65 3 3.3 3 5 C1.68 4.67 0.36 4.34 -1 4 C-0.67 2.68 -0.34 1.36 0 0 Z " fill="#082B42" transform="translate(91,126)"/>
<path d="M0 0 C0.33 0.66 0.66 1.32 1 2 C0.67 2.66 0.34 3.32 0 4 C1.65 4 3.3 4 5 4 C5 4.33 5 4.66 5 5 C2.69 5 0.38 5 -2 5 C-2 3.68 -2 2.36 -2 1 C-1.34 0.67 -0.68 0.34 0 0 Z " fill="#26321B" transform="translate(104,99)"/>
<path d="" fill="#FFFFFF" transform="translate(0,0)"/>
<path d="" fill="#FFFFFF" transform="translate(0,0)"/>
<path d="" fill="#FFFFFF" transform="translate(0,0)"/>
<path d="" fill="#FFFFFF" transform="translate(0,0)"/>
<path d="" fill="#FFFFFF" transform="translate(0,0)"/>
<path d="" fill="#FFFFFF" transform="translate(0,0)"/>
<path d="" fill="#FFFFFF" transform="translate(0,0)"/>
<path d="" fill="#FFFFFF" transform="translate(0,0)"/>
<path d="" fill="#FFFFFF" transform="translate(0,0)"/>
<path d="" fill="#FFFFFF" transform="translate(0,0)"/>
<path d="" fill="#FFFFFF" transform="translate(0,0)"/>
<path d="" fill="#FFFFFF" transform="translate(0,0)"/>
<path d="" fill="#FFFFFF" transform="translate(0,0)"/>
<path d="" fill="#FFFFFF" transform="translate(0,0)"/>
<path d="" fill="#FFFFFF" transform="translate(0,0)"/>
<path d="" fill="#FFFFFF" transform="translate(0,0)"/>
<path d="" fill="#FFFFFF" transform="translate(0,0)"/>
<path d="" fill="#FFFFFF" transform="translate(0,0)"/>
<path d="" fill="#FFFFFF" transform="translate(0,0)"/>
<path d="" fill="#FFFFFF" transform="translate(0,0)"/>
<path d="" fill="#000000" transform="translate(0,0)"/>
<path d="" fill="#000000" transform="translate(0,0)"/>
<path d="" fill="#000000" transform="translate(0,0)"/>
<path d="" fill="#000000" transform="translate(0,0)"/>
<path d="" fill="#FFFFFF" transform="translate(0,0)"/>
<path d="" fill="#000000" transform="translate(0,0)"/>
<path d="" fill="#000000" transform="translate(0,0)"/>
<path d="" fill="#FFFFFF" transform="translate(0,0)"/>
<path d="" fill="#FFFFFF" transform="translate(0,0)"/>
<path d="" fill="#FFFFFF" transform="translate(0,0)"/>
<path d="" fill="#FFFFFF" transform="translate(0,0)"/>
<path d="" fill="#000000" transform="translate(0,0)"/>
<path d="" fill="#FFFFFF" transform="translate(0,0)"/>
<path d="" fill="#FFFFFF" transform="translate(0,0)"/>
<path d="" fill="#FFFFFF" transform="translate(0,0)"/>
<path d="" fill="#000000" transform="translate(0,0)"/>
<path d="" fill="#FFFFFF" transform="translate(0,0)"/>
<path d="" fill="#002A2A" transform="translate(0,0)"/>
<path d="" fill="#000000" transform="translate(0,0)"/>
<path d="" fill="#FFFFFF" transform="translate(0,0)"/>
<path d="" fill="#FFFFFF" transform="translate(0,0)"/>
<path d="" fill="#FFFFFE" transform="translate(0,0)"/>
<path d="" fill="#FFFFFF" transform="translate(0,0)"/>
<path d="" fill="#FFFFFF" transform="translate(0,0)"/>
<path d="" fill="#FFFFFF" transform="translate(0,0)"/>
<path d="" fill="#FFFFFF" transform="translate(0,0)"/>
<path d="" fill="#FFFFFF" transform="translate(0,0)"/>
<path d="" fill="#FFFFFF" transform="translate(0,0)"/>
<path d="" fill="#FFFFFF" transform="translate(0,0)"/>
<path d="" fill="#FFFFFF" transform="translate(0,0)"/>
<path d="" fill="#FFFFFF" transform="translate(0,0)"/>
<path d="" fill="#FFFFFF" transform="translate(0,0)"/>
<path d="" fill="#FFFFFF" transform="translate(0,0)"/>
<path d="" fill="#FFFFFF" transform="translate(0,0)"/>
<path d="" fill="#FFFFFF" transform="translate(0,0)"/>
<path d="" fill="#FFFFFF" transform="translate(0,0)"/>
<path d="" fill="#FFFFFF" transform="translate(0,0)"/>
<path d="" fill="#FFFFFF" transform="translate(0,0)"/>
<path d="" fill="#FFFFFF" transform="translate(0,0)"/>
<path d="" fill="#FFFFFF" transform="translate(0,0)"/>
<path d="" fill="#FFFFFF" transform="translate(0,0)"/>
<path d="" fill="#FFFFFF" transform="translate(0,0)"/>
<path d="" fill="#FFFFFF" transform="translate(0,0)"/>
<path d="" fill="#FFFFFF" transform="translate(0,0)"/>
<path d="" fill="#FFFFFF" transform="translate(0,0)"/>
<path d="" fill="#FFFFFF" transform="translate(0,0)"/>
<path d="" fill="#FFFFFF" transform="translate(0,0)"/>
<path d="" fill="#FFFFFF" transform="translate(0,0)"/>
<path d="" fill="#FFFFFF" transform="translate(0,0)"/>
<path d="" fill="#FFFFFF" transform="translate(0,0)"/>
<path d="" fill="#FFFFFF" transform="translate(0,0)"/>
</svg>
