<svg version="1.1" id="Layer_1" xmlns="http://www.w3.org/2000/svg" xmlns:xlink="http://www.w3.org/1999/xlink" x="0px" y="0px"
	 width="100%" viewBox="0 0 200 200" enable-background="new 0 0 200 200" xml:space="preserve">
<path fill="#FFFFFF" opacity="1.000000" stroke="none" 
	d="
M120.000000,201.000000 
	C80.024696,201.000000 40.549400,201.000000 1.037050,201.000000 
	C1.037050,134.399734 1.037050,67.799454 1.037050,1.099581 
	C67.558464,1.099581 134.117126,1.099581 200.837891,1.099581 
	C200.837891,67.666351 200.837891,134.333145 200.837891,201.000000 
	C174.133072,201.000000 147.316528,201.000000 120.000000,201.000000 
M131.845200,96.916916 
	C131.845200,96.916916 131.841766,96.861221 132.558868,96.955551 
	C133.039658,96.969986 133.520432,96.984413 134.003098,97.757439 
	C134.434006,99.118889 134.864929,100.480339 135.546585,102.633987 
	C138.790527,98.508530 137.902252,97.071259 133.989227,96.296432 
	C133.335587,95.531769 132.681946,94.767113 131.673126,94.051811 
	C131.673126,94.051811 131.320419,94.116302 131.587112,93.477608 
	C131.669388,92.789795 131.751678,92.101990 131.928329,90.777527 
	C131.718643,90.215881 131.508942,89.654243 131.049927,88.360077 
	C130.877457,87.604469 130.704971,86.848869 131.312302,86.007454 
	C135.768219,85.379288 135.004150,76.875778 141.807281,80.252640 
	C140.993179,77.067329 140.433792,74.878647 139.857880,72.299232 
	C139.857880,72.299232 140.090378,71.984756 140.588486,71.545448 
	C140.675583,70.900284 140.762665,70.255127 140.798203,68.820465 
	C140.815369,66.719849 140.832520,64.619225 140.939392,61.569279 
	C141.046738,59.608208 141.178986,57.648067 141.252319,55.685726 
	C141.298218,54.457821 141.480972,52.208332 141.218384,52.150162 
	C137.494659,51.325184 133.705154,50.797115 129.253983,50.155815 
	C128.821991,50.025051 128.389999,49.894291 127.455513,49.309933 
	C126.784569,49.261219 126.113632,49.212505 124.700264,49.432541 
	C123.130264,49.322475 121.560265,49.212410 119.995628,48.231808 
	C119.719887,44.877476 121.302025,40.496319 115.201340,39.921089 
	C115.005692,39.695999 114.914742,39.434502 114.978310,38.311287 
	C115.478584,33.971558 113.955818,32.246792 109.244469,34.112179 
	C109.244469,34.112179 108.965065,33.861683 108.689217,33.446434 
	C108.383652,33.331341 108.078087,33.216244 107.352158,33.094711 
	C107.352158,33.094711 106.993942,32.874645 106.871262,32.188156 
	C101.273026,27.619032 98.718353,27.756134 95.391449,33.027634 
	C94.966492,33.124313 94.541527,33.220993 93.806313,32.756527 
	C93.262337,33.239902 92.718369,33.723274 92.106812,34.214954 
	C92.106812,34.214954 92.156227,34.168282 91.392532,34.067238 
	C90.593262,35.040165 89.793991,36.013092 89.000549,37.000652 
	C89.000549,37.000652 88.985916,36.994633 88.190628,36.994602 
	C86.483070,38.204075 83.914139,39.069939 83.263496,40.701019 
	C82.204300,43.356289 82.398895,46.511703 81.290718,49.509399 
	C80.276489,49.432678 79.262268,49.355957 77.429909,49.031403 
	C73.663635,50.373150 69.897354,51.714901 65.308266,53.018776 
	C63.415035,52.769646 61.521801,52.520519 58.352612,52.103489 
	C59.426785,55.579689 60.268032,58.302113 61.122490,61.705090 
	C61.019875,62.145676 60.917259,62.586258 60.283882,63.542999 
	C59.856945,65.097084 58.753048,66.840012 59.124451,68.171394 
	C60.475441,73.014389 58.834816,79.460388 65.767921,81.645660 
	C66.206909,81.784035 66.459999,83.315514 66.372375,84.154259 
	C66.189224,85.907303 65.720558,87.630516 65.382721,89.299057 
	C65.882225,89.567085 66.154991,89.818588 66.453621,89.854385 
	C67.430260,89.971436 68.416313,90.009926 69.320953,90.893684 
	C69.274887,92.790077 69.228828,94.686478 69.100960,97.279816 
	C69.418449,97.842270 69.735939,98.404724 70.447807,99.044891 
	C70.447807,99.044891 70.836388,99.147758 70.908562,99.847664 
	C71.052383,100.536140 71.196205,101.224625 70.576904,101.967270 
	C69.851852,102.295845 69.126808,102.624413 68.401756,102.952988 
	C68.459969,103.214134 68.518173,103.475288 68.576385,103.736435 
	C70.000328,103.823181 71.424271,103.909927 73.339828,104.409912 
	C74.601944,105.509705 75.864067,106.609505 77.137199,108.464211 
	C78.623734,110.370361 79.007507,113.830612 82.623093,112.865913 
	C87.655327,111.523209 92.593689,109.822868 97.639771,108.541611 
	C99.069176,108.178665 101.441513,108.146225 102.156654,108.994606 
	C104.212196,111.433105 106.188698,112.044525 109.371178,111.499596 
	C112.004753,111.048653 114.905319,111.906700 117.648186,112.402702 
	C121.837700,113.160294 127.054581,109.293884 127.975273,104.131874 
	C128.363525,103.756660 128.751770,103.381454 129.539352,102.739517 
	C129.782928,102.504158 129.912888,102.217300 130.120102,101.201836 
	C130.531784,100.106232 130.943451,99.010620 131.665909,97.655670 
	C131.841446,97.430290 131.917572,97.175194 131.845200,96.916916 
M128.095062,126.108566 
	C128.095062,126.108566 128.222473,126.159615 127.482880,126.128143 
	C123.971191,127.011452 125.126472,129.145798 126.142654,131.652222 
	C126.142654,131.652222 125.903893,131.995392 125.185768,131.984497 
	C123.109352,130.331070 121.032944,128.677658 119.007408,127.017517 
	C119.007408,127.017517 118.967453,127.050339 119.002037,126.190544 
	C118.458778,124.495102 117.915512,122.799660 117.372261,121.104225 
	C115.592079,122.084152 113.811905,123.064072 112.007774,124.008499 
	C112.007774,124.008499 112.043808,124.034157 111.261055,123.988884 
	C109.636497,123.325356 108.034760,122.597801 106.383446,122.009361 
	C99.099060,119.413582 92.883659,122.029083 86.522522,125.867256 
	C86.216904,125.690247 86.033752,125.427780 85.648041,124.562881 
	C85.273598,124.429916 84.899147,124.296951 84.207016,124.196297 
	C84.207016,124.196297 84.002319,123.951210 83.866142,123.225357 
	C80.862801,122.280235 77.859459,121.335106 74.194221,120.181686 
	C73.831879,119.767815 72.980759,118.134758 71.641655,117.433342 
	C69.965927,116.555603 67.889221,116.443375 65.653160,115.665474 
	C65.432823,115.440689 65.215378,115.213142 64.903183,114.325447 
	C63.933773,114.512779 62.964367,114.700111 61.271046,115.183258 
	C60.866753,118.123283 60.462460,121.063301 59.218430,124.008644 
	C58.382648,124.079414 57.546867,124.150177 56.837883,124.152786 
	C56.837883,124.152786 56.773006,124.281296 56.819031,123.529327 
	C53.772587,120.368721 48.085022,120.262520 45.216038,123.466766 
	C44.503342,123.409370 43.790649,123.351974 42.954472,122.556648 
	C39.970680,122.286942 36.986889,122.017227 33.638836,121.714592 
	C33.832508,125.019485 33.987202,127.659241 34.160110,130.886688 
	C34.053577,131.262787 33.947048,131.638901 33.324360,132.629868 
	C32.877682,137.186966 31.944958,141.859207 35.996834,145.461578 
	C37.725510,146.998489 39.526260,148.178436 41.911873,145.311630 
	C43.383533,145.432999 44.855194,145.554367 47.044487,145.995285 
	C48.694870,145.668808 50.345257,145.342346 52.748604,145.021820 
	C53.496838,145.068069 54.245071,145.114319 55.039120,145.639221 
	C55.213543,145.872894 55.387966,146.106552 55.562393,146.340225 
	C55.709316,145.913849 55.856239,145.487457 56.314259,144.710953 
	C56.514385,144.471268 56.715900,144.232758 57.708740,143.996368 
	C58.498695,143.996017 59.288651,143.995651 60.278458,144.283829 
	C60.278458,144.283829 60.189014,144.623260 60.039970,145.383698 
	C58.044350,146.430801 56.134323,148.125717 54.036964,148.402832 
	C47.883198,149.215927 41.654942,149.465286 35.623482,149.922714 
	C35.175110,152.283524 34.858822,153.948898 34.423306,156.242035 
	C36.167831,156.242035 37.677010,156.167679 39.176529,156.256393 
	C43.176056,156.493057 47.464100,153.261246 51.123318,158.135300 
	C52.873493,160.466522 54.947445,158.522293 55.809872,156.129883 
	C56.305111,154.756073 56.748260,153.363480 57.179836,152.083221 
	C58.748032,154.697021 59.562580,156.966049 61.162609,158.274689 
	C61.806145,158.801025 64.172821,157.220520 65.139671,156.840698 
	C67.606247,157.257172 70.011147,158.362503 71.723053,157.693787 
	C72.774223,157.283173 72.764771,154.157364 73.136063,152.640900 
	C69.578903,151.742340 66.893059,151.063873 64.207214,150.385406 
	C64.138824,149.836487 64.070442,149.287567 64.002052,148.738647 
	C67.437347,147.441986 70.872650,146.145325 74.996391,144.904022 
	C76.331947,145.249588 77.667496,145.595154 79.070580,146.667465 
	C79.811615,149.604965 80.248123,152.671951 81.419319,155.426559 
	C82.024910,156.850861 83.918350,158.639832 85.257233,158.662674 
	C88.747620,158.722183 92.253067,157.897919 96.204544,157.365219 
	C94.635300,153.989624 94.379219,150.536499 89.654007,150.798203 
	C88.461548,150.864243 87.136162,148.530045 85.871857,147.298828 
	C86.174461,146.841370 86.477058,146.383911 86.779663,145.926453 
	C88.679543,146.181702 90.591942,146.699539 92.475380,146.609787 
	C94.004089,146.536926 95.498032,145.734589 97.883911,145.232834 
	C99.922295,145.170609 101.960686,145.108368 104.053055,145.682709 
	C103.318108,147.609833 102.583160,149.536942 101.726883,151.782211 
	C104.031197,155.924774 108.109962,156.551468 113.095917,157.461075 
	C118.205307,158.393204 122.381035,159.120087 126.865486,156.114853 
	C125.832077,154.224106 124.986794,152.677551 124.812523,152.358719 
	C117.940071,150.889633 112.146080,149.651093 105.503326,148.231110 
	C109.775230,145.291626 111.575760,139.006866 117.978035,142.921432 
	C118.321381,143.131378 118.951912,142.871613 119.831482,143.244598 
	C120.224464,143.862183 120.617447,144.479752 121.377922,145.557739 
	C122.244888,145.436890 123.111862,145.316040 124.611176,145.046341 
	C125.252602,144.953552 125.894028,144.860764 127.302704,144.825165 
	C129.673203,142.315765 132.000153,139.762665 134.444031,137.326904 
	C135.076004,136.697021 136.074631,136.435043 137.070404,136.848572 
	C137.014999,138.564651 136.959595,140.280731 136.326706,142.083618 
	C136.023224,142.406738 135.719757,142.729874 135.416290,143.053009 
	C135.918259,143.369507 136.420242,143.685989 137.175156,144.470932 
	C137.453659,144.687469 137.732178,144.904007 138.307404,145.531494 
	C138.867508,145.406357 139.427597,145.281219 140.731918,144.998642 
	C141.341660,144.637955 141.951385,144.277252 142.755493,143.755646 
	C142.885605,143.500275 142.834900,143.282089 142.362976,142.350739 
	C142.415222,141.569061 142.467484,140.787384 143.253983,140.011963 
	C144.232574,139.983032 145.211182,139.954102 146.624817,140.189804 
	C146.800613,140.660873 146.976425,141.131958 147.069382,142.452698 
	C147.645386,147.456131 148.415741,147.828812 154.384109,145.557251 
	C156.255493,145.370529 158.126877,145.183807 160.398193,145.512573 
	C161.298859,145.268509 162.199524,145.024445 163.927567,144.915451 
	C166.213531,145.161194 168.537079,145.462509 168.757584,141.305710 
	C169.036987,137.572113 168.540634,133.538483 169.833160,130.196747 
	C170.932220,127.355209 170.086273,126.357559 168.079346,124.565506 
	C168.079346,124.565506 167.967896,124.083527 167.922943,123.395958 
	C164.568344,120.353172 161.216537,121.834549 157.165833,123.494255 
	C156.470703,123.406723 155.775589,123.319199 154.701675,122.607735 
	C150.837296,121.070023 146.972931,119.532303 142.863205,117.403969 
	C142.417725,116.680275 141.972229,115.956573 142.118271,114.900360 
	C141.069885,114.044136 140.021500,113.187904 138.973114,112.331680 
	C138.332504,113.595810 137.691895,114.859940 136.938232,116.900032 
	C136.957321,117.937813 136.976410,118.975601 136.893997,120.751328 
	C134.593384,121.782951 132.292770,122.814575 129.516647,124.151756 
	C129.274399,124.439400 129.032150,124.727043 128.407928,125.309708 
	C128.186920,125.576515 128.109207,125.880051 128.095062,126.108566 
M168.959000,154.240356 
	C168.658905,148.694656 167.993759,148.568024 162.632278,150.015594 
	C159.220856,150.936630 155.450150,150.810516 151.855362,150.694687 
	C147.669342,150.559814 143.499481,149.923599 139.547607,149.527496 
	C139.547607,152.828461 139.547607,155.762894 139.547607,158.359161 
	C149.207932,157.602798 158.459854,153.438629 167.442841,159.605698 
	C167.974365,157.876358 168.410049,156.458832 168.959000,154.240356 
M132.500137,148.402954 
	C132.000336,149.717255 131.082031,151.037949 131.101959,152.344330 
	C131.129623,154.157791 131.831314,155.970032 132.387894,157.737610 
	C132.413574,157.819168 134.409439,157.636246 134.521927,157.275436 
	C135.140976,155.289642 135.791473,153.200974 135.735764,151.166641 
	C135.709244,150.198822 134.141052,149.273239 132.500137,148.402954 
M120.765144,39.770092 
	C121.440018,39.151638 122.114891,38.533180 122.789764,37.914730 
	C121.558968,36.871967 120.328163,35.829208 119.097366,34.786449 
	C118.657074,35.253784 118.216782,35.721119 117.776489,36.188454 
	C118.554756,37.272839 119.333023,38.357224 120.765144,39.770092 
M134.042511,104.672119 
	C133.940277,105.638901 133.838043,106.605690 133.735825,107.572472 
	C134.314850,107.506218 134.893875,107.439972 135.472916,107.373718 
	C135.207001,106.373932 134.941086,105.374146 134.042511,104.672119 
M81.391624,34.202240 
	C81.785812,34.206436 82.180000,34.210632 82.574188,34.214832 
	C82.575706,34.051250 82.588203,33.745499 82.577164,33.744648 
	C82.184914,33.714382 81.790474,33.712681 81.391624,34.202240 
M111.482689,158.589249 
	C111.482689,158.589249 111.415192,158.476715 111.482689,158.589249 
M86.590340,160.517319 
	C86.590340,160.517319 86.476784,160.585663 86.590340,160.517319 
z"/>
<path fill="#F6F9F8" opacity="1.000000" stroke="none" 
	d="
M97.007385,145.255768 
	C95.498032,145.734589 94.004089,146.536926 92.475380,146.609787 
	C90.591942,146.699539 88.679543,146.181702 86.779663,145.926453 
	C86.477058,146.383911 86.174461,146.841370 85.871857,147.298828 
	C87.136162,148.530045 88.461548,150.864243 89.654007,150.798203 
	C94.379219,150.536499 94.635300,153.989624 96.204544,157.365219 
	C92.253067,157.897919 88.747620,158.722183 85.257233,158.662674 
	C83.918350,158.639832 82.024910,156.850861 81.419319,155.426559 
	C80.248123,152.671951 79.811615,149.604965 79.399887,146.188843 
	C82.300568,144.895462 84.871956,144.080704 87.453133,143.262863 
	C86.053314,139.097290 83.935783,139.550400 80.997261,140.090271 
	C79.072166,140.443954 75.827507,139.217606 74.861542,137.655365 
	C73.841675,136.005951 74.078697,132.649170 75.165642,130.915207 
	C76.070412,129.471848 79.337738,128.256149 80.964325,128.781097 
	C84.286736,129.853333 85.837242,128.902054 86.974037,126.065048 
	C92.883659,122.029083 99.099060,119.413582 106.383446,122.009361 
	C108.034760,122.597801 109.636497,123.325356 111.644089,124.379471 
	C114.501007,130.790207 116.974884,136.810349 119.448753,142.830490 
	C118.951912,142.871613 118.321381,143.131378 117.978035,142.921432 
	C111.575760,139.006866 109.775230,145.291626 105.503326,148.231110 
	C112.146080,149.651093 117.940071,150.889633 124.812523,152.358719 
	C124.986794,152.677551 125.832077,154.224106 126.865486,156.114853 
	C122.381035,159.120087 118.205307,158.393204 113.095917,157.461075 
	C108.109962,156.551468 104.031197,155.924774 101.726883,151.782211 
	C102.583160,149.536942 103.318108,147.609833 104.276009,145.129669 
	C109.577103,141.362625 111.692459,137.130569 110.533401,132.208145 
	C109.392693,127.363647 106.436035,124.369942 101.365326,123.770180 
	C95.372810,123.061394 90.657005,126.148087 89.268257,131.632202 
	C87.774986,137.529099 90.536804,142.390854 97.007385,145.255768 
z"/>
<path fill="#D1AF3F" opacity="1.000000" stroke="none" 
	d="
M108.965065,33.861683 
	C108.965065,33.861683 109.244469,34.112179 109.631943,34.408768 
	C111.655769,36.182438 113.292130,37.659512 114.928482,39.136589 
	C114.914742,39.434502 115.005692,39.695999 115.468094,40.418312 
	C116.102341,42.630997 116.469841,44.346455 116.534370,45.909454 
	C109.885201,40.131584 103.444717,41.667561 101.815887,49.492775 
	C101.796318,50.191036 101.786652,50.589085 101.436165,51.060463 
	C99.976921,53.628178 98.567520,56.036747 97.801315,58.634995 
	C96.256531,63.873436 92.983009,66.139938 87.569603,65.804390 
	C84.624138,65.621819 81.651543,65.877037 78.480705,65.838898 
	C78.074509,65.499680 77.927750,65.229744 77.964912,64.573502 
	C79.708519,59.345318 81.317162,54.476807 83.080086,49.244308 
	C85.151550,44.918423 87.068733,40.956528 88.985916,36.994633 
	C88.985916,36.994633 89.000549,37.000652 89.290237,36.888023 
	C90.438698,35.906357 91.297462,35.037319 92.156227,34.168282 
	C92.156227,34.168282 92.106812,34.214954 92.418221,34.199287 
	C93.191940,33.894970 93.654251,33.606319 94.116570,33.317673 
	C94.541527,33.220993 94.966492,33.124313 96.084686,32.923180 
	C100.183266,32.837368 103.588600,32.856007 106.993942,32.874645 
	C106.993942,32.874645 107.352158,33.094711 107.692017,33.316708 
	C108.342941,33.646362 108.653999,33.754025 108.965065,33.861683 
z"/>
<path fill="#8F3542" opacity="1.000000" stroke="none" 
	d="
M101.776985,50.987129 
	C101.786652,50.589085 101.796318,50.191036 102.297157,49.443020 
	C107.679657,49.008053 112.570969,48.923061 117.778061,48.925461 
	C118.725975,49.042679 119.358116,49.072510 119.990265,49.102345 
	C121.560265,49.212410 123.130264,49.322475 125.336136,49.513344 
	C126.634003,49.650608 127.295998,49.707069 127.958000,49.763527 
	C128.389999,49.894291 128.821991,50.025051 129.810791,50.429077 
	C135.987793,52.755005 138.741226,57.350739 140.849686,62.518608 
	C140.832520,64.619225 140.815369,66.719849 140.593552,69.449066 
	C140.289398,70.713371 140.189896,71.349068 140.090393,71.984756 
	C140.090378,71.984756 139.857880,72.299232 139.591095,72.704498 
	C137.179779,75.348419 135.035248,77.587090 132.898163,79.386307 
	C133.444534,68.897369 132.414215,67.375694 123.995018,66.166412 
	C122.798347,66.448952 121.893776,66.783447 120.551468,67.070557 
	C107.756241,66.932167 106.708244,66.162025 102.804626,54.277542 
	C102.446083,53.185989 102.118790,52.084175 101.776985,50.987129 
z"/>
<path fill="#8F3642" opacity="1.000000" stroke="none" 
	d="
M77.829948,64.933182 
	C77.927750,65.229744 78.074509,65.499680 78.683853,66.131973 
	C81.409698,68.352402 83.607155,70.357727 86.059624,71.976730 
	C90.306198,74.780121 91.241859,78.325325 89.489006,83.008125 
	C88.637192,85.283737 88.401794,87.790077 87.750023,90.436958 
	C87.022453,91.147964 86.432220,91.613991 85.540367,91.934753 
	C80.990959,89.215553 76.743164,86.641594 72.447174,83.698990 
	C71.638481,82.499657 71.013245,81.456581 70.095802,80.872353 
	C63.539600,76.697304 60.322330,70.840736 60.814648,63.026844 
	C60.917259,62.586258 61.019875,62.145676 61.364037,61.136391 
	C63.114082,58.064011 64.622581,55.560329 66.131081,53.056648 
	C69.897354,51.714901 73.663635,50.373150 77.761322,49.491875 
	C77.130348,51.057377 76.134262,52.135067 75.211578,53.272305 
	C71.750961,57.537594 72.773567,62.050575 77.829948,64.933182 
z"/>
<path fill="#D2AF3C" opacity="1.000000" stroke="none" 
	d="
M129.140030,103.006241 
	C128.751770,103.381454 128.363525,103.756660 127.608124,104.574837 
	C125.770569,106.055099 124.398598,107.284760 122.812691,108.096367 
	C115.967308,111.599571 108.709923,110.461655 105.052933,105.285385 
	C108.067505,104.455940 110.644867,103.718132 113.536804,102.924454 
	C114.209602,102.172150 114.567841,101.475723 114.946442,100.562241 
	C114.966805,100.345177 115.192993,99.972404 115.491699,99.780991 
	C117.279022,93.102242 114.777725,87.530479 111.571693,81.865021 
	C111.295601,81.092415 111.219055,80.529427 111.383270,79.734680 
	C112.064552,77.977348 112.505074,76.451775 112.970718,74.957382 
	C112.995834,74.988556 112.920448,74.961586 113.166489,74.871605 
	C113.597580,74.495232 113.782639,74.208832 114.104706,73.673225 
	C114.832237,72.949623 115.422768,72.475227 116.234299,71.887115 
	C116.733833,71.564278 116.907860,71.289062 116.987015,70.974564 
	C116.996635,71.001366 116.951370,70.966743 117.313431,70.981255 
	C118.440186,70.314651 119.204872,69.633530 119.982803,68.977463 
	C119.996048,69.002525 119.951820,68.966660 120.344574,68.985977 
	C122.519943,70.668144 124.302559,72.331001 126.176575,74.104233 
	C126.267982,74.214622 126.153572,74.477432 126.113754,74.896729 
	C126.727531,77.188828 127.381134,79.061638 128.282806,81.058853 
	C128.776031,81.459335 129.021179,81.735405 129.185013,82.295479 
	C129.052353,82.769615 129.001022,82.959755 128.948059,83.543381 
	C129.639282,86.259666 130.332123,88.582466 131.217545,91.047852 
	C131.410126,91.190437 131.833954,91.414177 131.833954,91.414177 
	C131.751678,92.101990 131.669388,92.789795 131.148346,93.900665 
	C130.150070,96.884102 129.590561,99.444481 129.045349,102.256615 
	C129.086456,102.674332 129.113251,102.840286 129.140030,103.006241 
z"/>
<path fill="#F6F9F8" opacity="1.000000" stroke="none" 
	d="
M74.307953,144.848663 
	C70.872650,146.145325 67.437347,147.441986 64.002052,148.738647 
	C64.070442,149.287567 64.138824,149.836487 64.207214,150.385406 
	C66.893059,151.063873 69.578903,151.742340 73.136063,152.640900 
	C72.764771,154.157364 72.774223,157.283173 71.723053,157.693787 
	C70.011147,158.362503 67.606247,157.257172 65.139671,156.840698 
	C64.172821,157.220520 61.806145,158.801025 61.162609,158.274689 
	C59.562580,156.966049 58.748032,154.697021 57.179836,152.083221 
	C56.748260,153.363480 56.305111,154.756073 55.809872,156.129883 
	C54.947445,158.522293 52.873493,160.466522 51.123318,158.135300 
	C47.464100,153.261246 43.176056,156.493057 39.176529,156.256393 
	C37.677010,156.167679 36.167831,156.242035 34.423306,156.242035 
	C34.858822,153.948898 35.175110,152.283524 35.623482,149.922714 
	C41.654942,149.465286 47.883198,149.215927 54.036964,148.402832 
	C56.134323,148.125717 58.044350,146.430801 60.523064,145.122604 
	C62.535938,144.861511 64.065720,144.861511 66.007431,144.861511 
	C66.007431,141.845322 66.007431,139.422256 66.320648,137.023071 
	C67.412880,137.699188 68.191895,138.351410 69.152176,139.303589 
	C70.991615,141.351944 72.649788,143.100311 74.307953,144.848663 
z"/>
<path fill="#16374C" opacity="1.000000" stroke="none" 
	d="
M33.840519,132.014999 
	C33.947048,131.638901 34.053577,131.262787 34.415695,130.365295 
	C37.473503,127.660797 40.275730,125.477692 43.077957,123.294579 
	C43.790649,123.351974 44.503342,123.409370 45.835854,123.584846 
	C49.762836,126.249496 53.385818,123.162254 56.773006,124.281296 
	C56.773006,124.281296 56.837883,124.152786 56.751308,124.639153 
	C56.749420,131.415482 56.834110,137.705460 56.918800,143.995422 
	C56.715900,144.232758 56.514385,144.471268 55.901253,144.860199 
	C55.323261,145.059814 55.158283,145.110199 54.993305,145.160568 
	C54.245071,145.114319 53.496838,145.068069 52.216454,144.642548 
	C49.898487,144.734100 48.112671,145.204910 46.326855,145.675720 
	C44.855194,145.554367 43.383533,145.432999 41.255531,145.162994 
	C34.447960,142.708084 33.720024,137.582108 33.840519,132.014999 
M39.183121,132.938492 
	C38.682243,136.941650 40.124760,139.896729 44.219543,140.683212 
	C47.532196,141.319473 50.106636,139.762390 50.947838,136.375717 
	C51.718067,133.274811 51.181030,130.338531 47.903698,128.857925 
	C44.045822,127.115036 41.228855,128.507141 39.183121,132.938492 
z"/>
<path fill="#103247" opacity="1.000000" stroke="none" 
	d="
M147.152222,141.603027 
	C146.976425,141.131958 146.800613,140.660873 146.374329,139.665649 
	C144.463394,129.541992 146.503403,125.918282 155.080460,123.231674 
	C155.775589,123.319199 156.470703,123.406723 157.789795,123.640800 
	C161.516113,126.542603 164.802536,123.360420 167.967896,124.083527 
	C167.967896,124.083527 168.079346,124.565506 168.095184,125.254112 
	C168.171051,131.283279 168.231049,136.623840 168.291046,141.964401 
	C168.537079,145.462509 166.213531,145.161194 163.510681,144.517151 
	C162.061935,144.411591 161.030106,144.704330 159.998260,144.997086 
	C158.126877,145.183807 156.255493,145.370529 153.748245,145.385330 
	C151.125656,144.009949 149.138947,142.806488 147.152222,141.603027 
M152.920486,129.455261 
	C150.093399,132.172089 149.763916,135.569305 152.092026,138.293076 
	C153.375000,139.794113 156.517883,140.761093 158.511948,140.373245 
	C162.361145,139.624603 163.521240,136.329117 162.657883,132.665649 
	C161.738144,128.762939 158.422653,127.533676 152.920486,129.455261 
z"/>
<path fill="#133449" opacity="1.000000" stroke="none" 
	d="
M97.445648,145.244293 
	C90.536804,142.390854 87.774986,137.529099 89.268257,131.632202 
	C90.657005,126.148087 95.372810,123.061394 101.365326,123.770180 
	C106.436035,124.369942 109.392693,127.363647 110.533401,132.208145 
	C111.692459,137.130569 109.577103,141.362625 104.249016,144.811371 
	C101.960686,145.108368 99.922295,145.170609 97.445648,145.244293 
M97.408600,140.073807 
	C100.684395,141.336594 103.885780,140.580750 104.657166,137.316879 
	C105.221298,134.929901 104.216362,131.544449 102.681061,129.551376 
	C101.903053,128.541397 97.761978,128.794479 96.270378,129.942917 
	C93.322296,132.212738 93.425026,135.633728 95.652687,138.744568 
	C95.933357,139.136505 96.370857,139.416138 97.408600,140.073807 
z"/>
<path fill="#F6F9F8" opacity="1.000000" stroke="none" 
	d="
M154.891068,122.919708 
	C146.503403,125.918282 144.463394,129.541992 146.156815,139.533325 
	C145.211182,139.954102 144.232574,139.983032 142.790527,139.549850 
	C142.327087,134.179535 142.327087,129.271317 142.327087,123.973862 
	C140.319046,124.062241 138.805527,124.128853 136.904831,124.212509 
	C136.904831,128.455597 136.904831,132.229828 136.904831,136.004059 
	C136.074631,136.435043 135.076004,136.697021 134.444031,137.326904 
	C132.000153,139.762665 129.673203,142.315765 127.026665,144.439148 
	C129.371796,137.614304 131.992966,131.175507 134.808914,124.258255 
	C132.539200,124.064087 131.265686,123.955147 129.992172,123.846199 
	C132.292770,122.814575 134.593384,121.782951 137.270294,120.552277 
	C140.502914,121.965317 142.250443,121.009773 143.108551,117.994591 
	C146.972931,119.532303 150.837296,121.070023 154.891068,122.919708 
z"/>
<path fill="#18374B" opacity="1.000000" stroke="none" 
	d="
M74.652176,144.876343 
	C72.649788,143.100311 70.991615,141.351944 69.155464,138.857208 
	C68.917580,135.743179 68.857666,133.375534 68.931244,130.662018 
	C70.512199,124.606201 75.430817,122.401680 84.002319,123.951210 
	C84.002319,123.951210 84.207016,124.196297 84.525459,124.438721 
	C85.220284,124.814056 85.596672,124.946960 85.973061,125.079865 
	C86.033752,125.427780 86.216904,125.690247 86.748276,125.966156 
	C85.837242,128.902054 84.286736,129.853333 80.964325,128.781097 
	C79.337738,128.256149 76.070412,129.471848 75.165642,130.915207 
	C74.078697,132.649170 73.841675,136.005951 74.861542,137.655365 
	C75.827507,139.217606 79.072166,140.443954 80.997261,140.090271 
	C83.935783,139.550400 86.053314,139.097290 87.453133,143.262863 
	C84.871956,144.080704 82.300568,144.895462 79.366119,145.825470 
	C77.667496,145.595154 76.331947,145.249588 74.652176,144.876343 
z"/>
<path fill="#133449" opacity="1.000000" stroke="none" 
	d="
M129.754410,123.998978 
	C131.265686,123.955147 132.539200,124.064087 134.808914,124.258255 
	C131.992966,131.175507 129.371796,137.614304 126.643036,144.410553 
	C125.894028,144.860764 125.252602,144.953552 123.930244,145.038574 
	C122.503021,145.052979 121.756721,145.075150 121.010429,145.097336 
	C120.617447,144.479752 120.224464,143.862183 119.640121,143.037537 
	C116.974884,136.810349 114.501007,130.790207 112.035469,124.402107 
	C112.043808,124.034157 112.007774,124.008499 112.423203,124.000763 
	C115.592987,123.586006 117.960037,123.955383 118.967453,127.050339 
	C118.967453,127.050339 119.007408,127.017517 118.997131,127.391479 
	C120.394890,131.379196 121.802925,134.992950 123.547409,139.470215 
	C124.527321,136.361923 125.215607,134.178665 125.903893,131.995392 
	C125.903893,131.995392 126.142654,131.652222 126.398193,131.219269 
	C127.176643,129.244080 127.699562,127.701843 128.222473,126.159615 
	C128.222473,126.159615 128.095062,126.108566 128.356689,126.043533 
	C128.675507,125.657234 128.732697,125.335953 128.789886,125.014679 
	C129.032150,124.727043 129.274399,124.439400 129.754410,123.998978 
z"/>
<path fill="#F6F9F8" opacity="1.000000" stroke="none" 
	d="
M168.902374,154.640839 
	C168.410049,156.458832 167.974365,157.876358 167.442841,159.605698 
	C158.459854,153.438629 149.207932,157.602798 139.547607,158.359161 
	C139.547607,155.762894 139.547607,152.828461 139.547607,149.527496 
	C143.499481,149.923599 147.669342,150.559814 151.855362,150.694687 
	C155.450150,150.810516 159.220856,150.936630 162.632278,150.015594 
	C167.993759,148.568024 168.658905,148.694656 168.902374,154.640839 
z"/>
<path fill="#29485B" opacity="1.000000" stroke="none" 
	d="
M66.007431,136.999176 
	C66.007431,139.422256 66.007431,141.845322 66.007431,144.861511 
	C64.065720,144.861511 62.535938,144.861511 60.597588,144.742386 
	C60.189014,144.623260 60.278458,144.283829 60.283649,143.681366 
	C60.211948,136.720383 60.135059,130.361847 60.058167,124.003326 
	C60.462460,121.063301 60.866753,118.123283 62.001518,115.125023 
	C63.488270,115.038803 64.244545,115.010818 65.000816,114.982834 
	C65.215378,115.213142 65.432823,115.440689 65.753326,116.295227 
	C65.905617,121.616753 65.957741,126.308510 65.915009,131.421265 
	C65.882576,133.561218 65.945007,135.280197 66.007431,136.999176 
z"/>
<path fill="#F6F9F8" opacity="1.000000" stroke="none" 
	d="
M104.615723,105.377029 
	C108.709923,110.461655 115.967308,111.599571 122.812691,108.096367 
	C124.398598,107.284760 125.770569,106.055099 127.551086,104.846008 
	C127.054581,109.293884 121.837700,113.160294 117.648186,112.402702 
	C114.905319,111.906700 112.004753,111.048653 109.371178,111.499596 
	C106.188698,112.044525 104.212196,111.433105 102.156654,108.994606 
	C101.441513,108.146225 99.069176,108.178665 97.639771,108.541611 
	C92.593689,109.822868 87.655327,111.523209 82.623093,112.865913 
	C79.007507,113.830612 78.623734,110.370361 77.505402,108.182220 
	C84.860847,110.956451 91.442711,110.923630 97.565613,105.264709 
	C98.240997,104.809166 98.648369,104.440094 99.437561,104.017899 
	C100.583015,103.913338 101.346649,103.861893 102.365768,103.969063 
	C103.286072,104.544121 103.950897,104.960571 104.615723,105.377029 
z"/>
<path fill="#F6F9F8" opacity="1.000000" stroke="none" 
	d="
M66.009865,131.000275 
	C65.957741,126.308510 65.905617,121.616753 65.919540,116.462845 
	C67.889221,116.443375 69.965927,116.555603 71.641655,117.433342 
	C72.980759,118.134758 73.831879,119.767815 74.194221,120.181686 
	C77.859459,121.335106 80.862801,122.280235 83.934235,123.588287 
	C75.430817,122.401680 70.512199,124.606201 68.700546,130.768799 
	C67.560852,131.147720 66.785355,131.074005 66.009865,131.000275 
z"/>
<path fill="#F6F9F8" opacity="1.000000" stroke="none" 
	d="
M60.549263,63.284920 
	C60.322330,70.840736 63.539600,76.697304 70.095802,80.872353 
	C71.013245,81.456581 71.638481,82.499657 72.269569,83.998871 
	C71.958168,85.332558 71.776176,85.997704 71.325134,86.806610 
	C70.503639,87.993126 69.951195,89.035873 69.398750,90.078629 
	C68.416313,90.009926 67.430260,89.971436 66.453621,89.854385 
	C66.154991,89.818588 65.882225,89.567085 65.382721,89.299057 
	C65.720558,87.630516 66.189224,85.907303 66.372375,84.154259 
	C66.459999,83.315514 66.206909,81.784035 65.767921,81.645660 
	C58.834816,79.460388 60.475441,73.014389 59.124451,68.171394 
	C58.753048,66.840012 59.856945,65.097084 60.549263,63.284920 
z"/>
<path fill="#113347" opacity="1.000000" stroke="none" 
	d="
M136.987610,136.426315 
	C136.904831,132.229828 136.904831,128.455597 136.904831,124.212509 
	C138.805527,124.128853 140.319046,124.062241 142.327087,123.973862 
	C142.327087,129.271317 142.327087,134.179535 142.423401,139.546722 
	C142.467484,140.787384 142.415222,141.569061 142.368988,142.924362 
	C142.374985,143.497986 142.561127,143.916565 142.561127,143.916565 
	C141.951385,144.277252 141.341660,144.637955 140.034439,145.000183 
	C138.894867,145.041336 138.452774,145.080933 138.010681,145.120544 
	C137.732178,144.904007 137.453659,144.687469 137.130676,143.905060 
	C137.025543,142.891724 136.964859,142.444260 136.904190,141.996811 
	C136.959595,140.280731 137.014999,138.564651 136.987610,136.426315 
z"/>
<path fill="#152A38" opacity="1.000000" stroke="none" 
	d="
M77.964912,64.573502 
	C72.773567,62.050575 71.750961,57.537594 75.211578,53.272305 
	C76.134262,52.135067 77.130348,51.057377 78.170387,49.615791 
	C79.262268,49.355957 80.276489,49.432678 81.874863,49.621857 
	C82.459000,49.734310 82.925812,49.608299 82.925812,49.608299 
	C81.317162,54.476807 79.708519,59.345318 77.964912,64.573502 
z"/>
<path fill="#F6F9F8" opacity="1.000000" stroke="none" 
	d="
M59.638298,124.005981 
	C60.135059,130.361847 60.211948,136.720383 60.183723,143.537094 
	C59.288651,143.995651 58.498695,143.996017 57.313770,143.995895 
	C56.834110,137.705460 56.749420,131.415482 56.687912,124.673233 
	C57.546867,124.150177 58.382648,124.079414 59.638298,124.005981 
z"/>
<path fill="#F6F9F8" opacity="1.000000" stroke="none" 
	d="
M128.949677,83.149887 
	C129.001022,82.959755 129.052353,82.769615 129.474335,82.185730 
	C130.860229,81.136574 131.875488,80.481171 132.890732,79.825760 
	C135.035248,77.587090 137.179779,75.348419 139.599365,72.899864 
	C140.433792,74.878647 140.993179,77.067329 141.807281,80.252640 
	C135.004150,76.875778 135.768219,85.379288 130.753677,85.824379 
	C129.779938,84.810829 129.364807,83.980354 128.949677,83.149887 
z"/>
<path fill="#C8B057" opacity="1.000000" stroke="none" 
	d="
M97.297600,105.351189 
	C91.442711,110.923630 84.860847,110.956451 77.499893,107.804764 
	C75.864067,106.609505 74.601944,105.509705 73.052719,103.936707 
	C72.290421,102.946693 71.815224,102.429901 71.340027,101.913101 
	C71.196205,101.224625 71.052383,100.536140 70.948059,99.434235 
	C70.987549,99.020813 71.141411,98.898079 71.413681,99.089211 
	C75.577057,104.758987 80.118301,109.263412 87.576210,107.933746 
	C90.780350,107.362488 93.839386,105.977371 97.048981,105.058174 
	C97.133621,105.154327 97.297600,105.351189 97.297600,105.351189 
z"/>
<path fill="#F6F9F8" opacity="1.000000" stroke="none" 
	d="
M140.894531,62.043945 
	C138.741226,57.350739 135.987793,52.755005 130.149582,50.449791 
	C133.705154,50.797115 137.494659,51.325184 141.218384,52.150162 
	C141.480972,52.208332 141.298218,54.457821 141.252319,55.685726 
	C141.178986,57.648067 141.046738,59.608208 140.894531,62.043945 
z"/>
<path fill="#F6F9F8" opacity="1.000000" stroke="none" 
	d="
M132.885681,148.365738 
	C134.141052,149.273239 135.709244,150.198822 135.735764,151.166641 
	C135.791473,153.200974 135.140976,155.289642 134.521927,157.275436 
	C134.409439,157.636246 132.413574,157.819168 132.387894,157.737610 
	C131.831314,155.970032 131.129623,154.157791 131.101959,152.344330 
	C131.082031,151.037949 132.000336,149.717255 132.885681,148.365738 
z"/>
<path fill="#F6F9F8" opacity="1.000000" stroke="none" 
	d="
M43.016212,122.925613 
	C40.275730,125.477692 37.473503,127.660797 34.406586,130.071442 
	C33.987202,127.659241 33.832508,125.019485 33.638836,121.714592 
	C36.986889,122.017227 39.970680,122.286942 43.016212,122.925613 
z"/>
<path fill="#F6F9F8" opacity="1.000000" stroke="none" 
	d="
M65.719673,53.037712 
	C64.622581,55.560329 63.114082,58.064011 61.357430,60.796112 
	C60.268032,58.302113 59.426785,55.579689 58.352612,52.103489 
	C61.521801,52.520519 63.415035,52.769646 65.719673,53.037712 
z"/>
<path fill="#F6F9F8" opacity="1.000000" stroke="none" 
	d="
M33.582439,132.322433 
	C33.720024,137.582108 34.447960,142.708084 40.882942,145.163605 
	C39.526260,148.178436 37.725510,146.998489 35.996834,145.461578 
	C31.944958,141.859207 32.877682,137.186966 33.582439,132.322433 
z"/>
<path fill="#F6F9F8" opacity="1.000000" stroke="none" 
	d="
M83.080086,49.244308 
	C82.925812,49.608299 82.459000,49.734310 82.261688,49.595177 
	C82.398895,46.511703 82.204300,43.356289 83.263496,40.701019 
	C83.914139,39.069939 86.483070,38.204075 88.588272,36.994617 
	C87.068733,40.956528 85.151550,44.918423 83.080086,49.244308 
z"/>
<path fill="#F6F9F8" opacity="1.000000" stroke="none" 
	d="
M125.544830,131.989944 
	C125.215607,134.178665 124.527321,136.361923 123.547409,139.470215 
	C121.802925,134.992950 120.394890,131.379196 118.971695,127.394836 
	C121.032944,128.677658 123.109352,130.331070 125.544830,131.989944 
z"/>
<path fill="#F6F9F8" opacity="1.000000" stroke="none" 
	d="
M56.796021,123.905312 
	C53.385818,123.162254 49.762836,126.249496 46.187790,123.514366 
	C48.085022,120.262520 53.772587,120.368721 56.796021,123.905312 
z"/>
<path fill="#1C3A4B" opacity="1.000000" stroke="none" 
	d="
M142.985870,117.699280 
	C142.250443,121.009773 140.502914,121.965317 137.321045,120.183304 
	C136.976410,118.975601 136.957321,117.937813 137.311523,116.389679 
	C138.965454,115.663841 140.246109,115.448364 141.526749,115.232880 
	C141.972229,115.956573 142.417725,116.680275 142.985870,117.699280 
z"/>
<path fill="#C8B057" opacity="1.000000" stroke="none" 
	d="
M69.359848,90.486160 
	C69.951195,89.035873 70.503639,87.993126 71.496246,87.156082 
	C72.685333,89.177856 73.434250,90.993927 73.825424,92.849091 
	C67.990257,93.071472 72.297020,97.041939 71.141411,98.898079 
	C71.141411,98.898079 70.987549,99.020813 70.911972,99.084290 
	C70.836388,99.147758 70.447807,99.044891 70.228752,98.682037 
	C69.734055,97.740410 69.458405,97.161644 69.182762,96.582870 
	C69.228828,94.686478 69.274887,92.790077 69.359848,90.486160 
z"/>
<path fill="#F6F9F8" opacity="1.000000" stroke="none" 
	d="
M106.932602,32.531403 
	C103.588600,32.856007 100.183266,32.837368 96.386383,32.795296 
	C98.718353,27.756134 101.273026,27.619032 106.932602,32.531403 
z"/>
<path fill="#F6F9F8" opacity="1.000000" stroke="none" 
	d="
M119.992950,48.667076 
	C119.358116,49.072510 118.725975,49.042679 117.729568,48.575287 
	C117.189316,47.445789 117.013329,46.753853 116.837341,46.061913 
	C116.469841,44.346455 116.102341,42.630997 115.638290,40.544380 
	C121.302025,40.496319 119.719887,44.877476 119.992950,48.667076 
z"/>
<path fill="#F6F9F8" opacity="1.000000" stroke="none" 
	d="
M167.945419,123.739746 
	C164.802536,123.360420 161.516113,126.542603 158.139267,123.594772 
	C161.216537,121.834549 164.568344,120.353172 167.945419,123.739746 
z"/>
<path fill="#F6F9F8" opacity="1.000000" stroke="none" 
	d="
M168.524323,141.635056 
	C168.231049,136.623840 168.171051,131.283279 168.189819,125.482643 
	C170.086273,126.357559 170.932220,127.355209 169.833160,130.196747 
	C168.540634,133.538483 169.036987,137.572113 168.524323,141.635056 
z"/>
<path fill="#F6F9F8" opacity="1.000000" stroke="none" 
	d="
M118.984741,126.620438 
	C117.960037,123.955383 115.592987,123.586006 112.435181,124.018509 
	C113.811905,123.064072 115.592079,122.084152 117.372253,121.104218 
	C117.915512,122.799660 118.458778,124.495102 118.984741,126.620438 
z"/>
<path fill="#F6F9F8" opacity="1.000000" stroke="none" 
	d="
M120.438217,39.605850 
	C119.333023,38.357224 118.554756,37.272839 117.776489,36.188454 
	C118.216782,35.721119 118.657074,35.253784 119.097366,34.786449 
	C120.328163,35.829208 121.558968,36.871967 122.789764,37.914726 
	C122.114891,38.533180 121.440018,39.151638 120.438217,39.605850 
z"/>
<path fill="#F6F9F8" opacity="1.000000" stroke="none" 
	d="
M147.110809,142.027863 
	C149.138947,142.806488 151.125656,144.009949 153.399780,145.433823 
	C148.415741,147.828812 147.645386,147.456131 147.110809,142.027863 
z"/>
<path fill="#F6F9F8" opacity="1.000000" stroke="none" 
	d="
M114.953400,38.723938 
	C113.292130,37.659512 111.655769,36.182438 109.817833,34.434170 
	C113.955818,32.246792 115.478584,33.971558 114.953400,38.723938 
z"/>
<path fill="#F6F9F8" opacity="1.000000" stroke="none" 
	d="
M133.998779,97.001198 
	C137.902252,97.071259 138.790527,98.508530 135.546585,102.633987 
	C134.864929,100.480339 134.434006,99.118889 134.001556,97.378723 
	C134.000000,97.000000 133.998779,97.001198 133.998779,97.001198 
z"/>
<path fill="#F6F9F8" opacity="1.000000" stroke="none" 
	d="
M141.822510,115.066620 
	C140.246109,115.448364 138.965454,115.663841 137.368057,116.001694 
	C137.691895,114.859940 138.332504,113.595810 138.973114,112.331680 
	C140.021500,113.187904 141.069885,114.044136 141.822510,115.066620 
z"/>
<path fill="#C8B057" opacity="1.000000" stroke="none" 
	d="
M129.031036,102.004860 
	C129.590561,99.444481 130.150070,96.884102 131.014999,94.220016 
	C131.320419,94.116302 131.673126,94.051811 131.759705,94.377945 
	C131.844772,95.423119 131.843277,96.142174 131.841766,96.861221 
	C131.841766,96.861221 131.845200,96.916916 131.664612,96.992203 
	C131.278412,97.325272 131.235443,97.607788 131.355133,97.915016 
	C130.943451,99.010620 130.531784,100.106232 129.799576,101.566452 
	C129.479050,101.931061 129.031052,102.004860 129.031036,102.004860 
z"/>
<path fill="#F6F9F8" opacity="1.000000" stroke="none" 
	d="
M46.685669,145.835510 
	C48.112671,145.204910 49.898487,144.734100 51.839973,144.639587 
	C50.345257,145.342346 48.694870,145.668808 46.685669,145.835510 
z"/>
<path fill="#F6F9F8" opacity="1.000000" stroke="none" 
	d="
M127.852676,126.143875 
	C127.699562,127.701843 127.176643,129.244080 126.383804,131.010727 
	C125.126472,129.145798 123.971191,127.011452 127.852676,126.143875 
z"/>
<path fill="#F6F9F8" opacity="1.000000" stroke="none" 
	d="
M134.358841,104.523239 
	C134.941086,105.374146 135.207001,106.373932 135.472900,107.373718 
	C134.893875,107.439972 134.314850,107.506218 133.735825,107.572472 
	C133.838043,106.605690 133.940277,105.638901 134.358841,104.523239 
z"/>
<path fill="#C8B057" opacity="1.000000" stroke="none" 
	d="
M128.948059,83.543381 
	C129.364807,83.980354 129.779938,84.810829 130.363770,85.867279 
	C130.704971,86.848869 130.877457,87.604469 131.113129,89.025963 
	C131.125885,90.096321 131.075424,90.500786 131.024963,90.905258 
	C130.332123,88.582466 129.639282,86.259666 128.948059,83.543381 
z"/>
<path fill="#F6F9F8" opacity="1.000000" stroke="none" 
	d="
M70.958466,101.940186 
	C71.815224,102.429901 72.290421,102.946693 72.806915,103.730080 
	C71.424271,103.909927 70.000328,103.823181 68.576385,103.736435 
	C68.518173,103.475288 68.459969,103.214134 68.401756,102.952988 
	C69.126808,102.624413 69.851852,102.295845 70.958466,101.940186 
z"/>
<path fill="#F6F9F8" opacity="1.000000" stroke="none" 
	d="
M160.198227,145.254822 
	C161.030106,144.704330 162.061935,144.411591 163.096985,144.449615 
	C162.199524,145.024445 161.298859,145.268509 160.198227,145.254822 
z"/>
<path fill="#F6F9F8" opacity="1.000000" stroke="none" 
	d="
M64.951996,114.654144 
	C64.244545,115.010818 63.488270,115.038803 62.363476,114.977112 
	C62.964367,114.700111 63.933773,114.512779 64.951996,114.654144 
z"/>
<path fill="#F6F9F8" opacity="1.000000" stroke="none" 
	d="
M91.774384,34.117760 
	C91.297462,35.037319 90.438698,35.906357 89.287331,36.880707 
	C89.793991,36.013092 90.593262,35.040165 91.774384,34.117760 
z"/>
<path fill="#F6F9F8" opacity="1.000000" stroke="none" 
	d="
M132.200317,96.908386 
	C131.843277,96.142174 131.844772,95.423119 131.937286,94.353264 
	C132.681946,94.767113 133.335587,95.531769 133.994003,96.648819 
	C133.998779,97.001198 134.000000,97.000000 134.000610,96.999420 
	C133.520432,96.984413 133.039658,96.969986 132.200317,96.908386 
z"/>
<path fill="#F6F9F8" opacity="1.000000" stroke="none" 
	d="
M136.615448,142.040222 
	C136.964859,142.444260 137.025543,142.891724 137.004211,143.670837 
	C136.420242,143.685989 135.918259,143.369507 135.416290,143.053009 
	C135.719757,142.729874 136.023224,142.406738 136.615448,142.040222 
z"/>
<path fill="#F6F9F8" opacity="1.000000" stroke="none" 
	d="
M81.393982,33.954605 
	C81.790474,33.712681 82.184914,33.714382 82.577164,33.744648 
	C82.588203,33.745499 82.575706,34.051250 82.574188,34.214832 
	C82.180000,34.210632 81.785812,34.206436 81.393982,33.954605 
z"/>
<path fill="#F6F9F8" opacity="1.000000" stroke="none" 
	d="
M93.961441,33.037098 
	C93.654251,33.606319 93.191940,33.894970 92.452011,34.195137 
	C92.718369,33.723274 93.262337,33.239902 93.961441,33.037098 
z"/>
<path fill="#F6F9F8" opacity="1.000000" stroke="none" 
	d="
M121.194176,145.327545 
	C121.756721,145.075150 122.503021,145.052979 123.614075,145.112976 
	C123.111862,145.316040 122.244888,145.436890 121.194176,145.327545 
z"/>
<path fill="#F6F9F8" opacity="1.000000" stroke="none" 
	d="
M69.141861,96.931343 
	C69.458405,97.161644 69.734055,97.740410 70.031563,98.643181 
	C69.735939,98.404724 69.418449,97.842270 69.141861,96.931343 
z"/>
<path fill="#F6F9F8" opacity="1.000000" stroke="none" 
	d="
M55.016212,145.399902 
	C55.158283,145.110199 55.323261,145.059814 55.745705,145.035263 
	C55.856239,145.487457 55.709316,145.913849 55.562393,146.340225 
	C55.387966,146.106552 55.213543,145.872894 55.016212,145.399902 
z"/>
<path fill="#F6F9F8" opacity="1.000000" stroke="none" 
	d="
M138.159042,145.326019 
	C138.452774,145.080933 138.894867,145.041336 139.662323,145.078918 
	C139.427597,145.281219 138.867508,145.406357 138.159042,145.326019 
z"/>
<path fill="#F6F9F8" opacity="1.000000" stroke="none" 
	d="
M131.217545,91.047852 
	C131.075424,90.500786 131.125885,90.096321 131.237793,89.392227 
	C131.508942,89.654243 131.718643,90.215881 131.881134,91.095856 
	C131.833954,91.414177 131.410126,91.190437 131.217545,91.047852 
z"/>
<path fill="#F6F9F8" opacity="1.000000" stroke="none" 
	d="
M140.339447,71.765106 
	C140.189896,71.349068 140.289398,70.713371 140.619324,69.843819 
	C140.762665,70.255127 140.675583,70.900284 140.339447,71.765106 
z"/>
<path fill="#F6F9F8" opacity="1.000000" stroke="none" 
	d="
M127.706757,49.536728 
	C127.295998,49.707069 126.634003,49.650608 125.707344,49.378967 
	C126.113632,49.212505 126.784569,49.261219 127.706757,49.536728 
z"/>
<path fill="#F6F9F8" opacity="1.000000" stroke="none" 
	d="
M142.658310,143.836105 
	C142.561127,143.916565 142.374985,143.497986 142.489182,143.299545 
	C142.834900,143.282089 142.885605,143.500275 142.658310,143.836105 
z"/>
<path fill="#F6F9F8" opacity="1.000000" stroke="none" 
	d="
M108.827141,33.654060 
	C108.653999,33.754025 108.342941,33.646362 107.902199,33.319927 
	C108.078087,33.216244 108.383652,33.331341 108.827141,33.654060 
z"/>
<path fill="#F6F9F8" opacity="1.000000" stroke="none" 
	d="
M111.448944,158.532990 
	C111.415192,158.476715 111.482689,158.589249 111.448944,158.532990 
z"/>
<path fill="#F6F9F8" opacity="1.000000" stroke="none" 
	d="
M86.533562,160.551483 
	C86.476784,160.585663 86.590340,160.517319 86.533562,160.551483 
z"/>
<path fill="#F6F9F8" opacity="1.000000" stroke="none" 
	d="
M85.810547,124.821381 
	C85.596672,124.946960 85.220284,124.814056 84.684303,124.422569 
	C84.899147,124.296951 85.273598,124.429916 85.810547,124.821381 
z"/>
<path fill="#F6F9F8" opacity="1.000000" stroke="none" 
	d="
M131.510529,97.785339 
	C131.235443,97.607788 131.278412,97.325272 131.689148,96.978928 
	C131.917572,97.175194 131.841446,97.430290 131.510529,97.785339 
z"/>
<path fill="#F6F9F8" opacity="1.000000" stroke="none" 
	d="
M129.045364,102.256615 
	C129.031052,102.004860 129.479050,101.931061 129.704132,101.904999 
	C129.912888,102.217300 129.782928,102.504158 129.339691,102.872879 
	C129.113251,102.840286 129.086456,102.674332 129.045364,102.256615 
z"/>
<path fill="#F6F9F8" opacity="1.000000" stroke="none" 
	d="
M128.598907,125.162193 
	C128.732697,125.335953 128.675507,125.657234 128.396545,126.099411 
	C128.109207,125.880051 128.186920,125.576515 128.598907,125.162193 
z"/>
<path fill="#FDFAF4" opacity="1.000000" stroke="none" 
	d="
M111.142509,79.966446 
	C111.219055,80.529427 111.295601,81.092415 111.597290,82.261002 
	C112.476334,85.701523 113.130226,88.536438 113.834831,91.591171 
	C112.623558,91.321449 111.824722,91.143562 111.021332,90.978546 
	C111.016777,90.991409 111.031670,90.973015 110.878044,90.710739 
	C110.191429,90.169273 109.658432,89.890083 109.007660,89.437042 
	C108.673859,89.067245 108.420479,88.957909 107.977051,88.644539 
	C106.574883,87.536118 105.325371,86.718323 104.032578,85.922417 
	C103.989281,85.944305 104.081276,85.921410 103.883263,85.646454 
	C101.435005,85.559746 99.184769,85.748001 96.963104,85.968796 
	C96.991684,86.001350 96.954117,85.923561 96.682785,85.986359 
	C96.163498,86.317291 95.915535,86.585411 95.406921,86.897766 
	C94.755699,87.271889 94.365120,87.601768 93.702141,87.996521 
	C93.183960,88.335190 92.938164,88.608978 92.429184,88.929886 
	C91.780144,89.320702 91.394279,89.664391 90.616653,89.987740 
	C89.445724,90.042259 88.666534,90.117119 87.887352,90.191971 
	C88.401794,87.790077 88.637192,85.283737 89.489006,83.008125 
	C91.241859,78.325325 90.306198,74.780121 86.059624,71.976730 
	C83.607155,70.357727 81.409698,68.352402 78.894333,66.227875 
	C81.651543,65.877037 84.624138,65.621819 87.569603,65.804390 
	C92.983009,66.139938 96.256531,63.873436 97.801315,58.634995 
	C98.567520,56.036747 99.976921,53.628178 101.436165,51.060463 
	C102.118790,52.084175 102.446083,53.185989 102.804626,54.277542 
	C106.708244,66.162025 107.756241,66.932167 120.480896,67.332260 
	C120.549316,68.083115 120.250565,68.524887 119.951813,68.966660 
	C119.951820,68.966660 119.996048,69.002525 119.685059,69.082069 
	C118.566505,69.763321 117.758934,70.365028 116.951370,70.966743 
	C116.951370,70.966743 116.996635,71.001366 116.734695,71.051468 
	C116.319611,71.401329 116.166451,71.701088 116.013290,72.000839 
	C115.422768,72.475227 114.832237,72.949623 113.852173,73.754921 
	C113.281914,74.377747 113.101173,74.669662 112.920441,74.961578 
	C112.920448,74.961586 112.995834,74.988556 112.655823,75.128578 
	C111.924713,76.834549 111.533607,78.400497 111.142509,79.966446 
z"/>
<path fill="#142E38" opacity="1.000000" stroke="none" 
	d="
M116.534363,45.909454 
	C117.013329,46.753853 117.189316,47.445789 117.413795,48.487900 
	C112.570969,48.923061 107.679657,49.008053 102.307068,49.142803 
	C103.444717,41.667561 109.885201,40.131584 116.534363,45.909454 
z"/>
<path fill="#172D38" opacity="1.000000" stroke="none" 
	d="
M132.898163,79.386307 
	C131.875488,80.481171 130.860229,81.136574 129.555649,81.901733 
	C129.021179,81.735405 128.776031,81.459335 128.289520,80.682541 
	C127.416634,78.280350 126.785103,76.378891 126.153580,74.477432 
	C126.153572,74.477432 126.267982,74.214622 126.167999,73.704636 
	C125.474388,70.869209 124.880753,68.543785 124.287125,66.218353 
	C132.414215,67.375694 133.444534,68.897369 132.898163,79.386307 
z"/>
<path fill="#C8B057" opacity="1.000000" stroke="none" 
	d="
M123.995026,66.166412 
	C124.880753,68.543785 125.474388,70.869209 126.076599,73.594246 
	C124.302559,72.331001 122.519943,70.668144 120.344574,68.985977 
	C120.250565,68.524887 120.549316,68.083115 120.918633,67.379646 
	C121.893776,66.783447 122.798347,66.448952 123.995026,66.166412 
z"/>
<path fill="#1A2C38" opacity="1.000000" stroke="none" 
	d="
M74.183167,92.809990 
	C73.434250,90.993927 72.685333,89.177856 71.765297,87.012329 
	C71.776176,85.997704 71.958168,85.332558 72.317764,84.367523 
	C76.743164,86.641594 80.990959,89.215553 85.438766,92.273560 
	C82.506386,96.200493 78.936234,95.213310 75.299026,93.791969 
	C75.276337,93.806824 75.235962,93.840172 75.145859,93.574966 
	C74.729744,93.149063 74.403732,92.988358 74.108551,92.849869 
	C74.139366,92.872101 74.183167,92.809990 74.183167,92.809990 
z"/>
<path fill="#C8B057" opacity="1.000000" stroke="none" 
	d="
M75.321716,93.777115 
	C78.936234,95.213310 82.506386,96.200493 85.740372,92.418816 
	C86.432220,91.613991 87.022453,91.147964 87.750023,90.436966 
	C88.666534,90.117119 89.445724,90.042259 90.478340,90.295372 
	C88.438568,92.431419 86.391418,94.966286 83.784843,95.848747 
	C81.027061,96.782394 77.274246,97.881386 75.321716,93.777115 
z"/>
<path fill="#173132" opacity="1.000000" stroke="none" 
	d="
M105.052933,105.285385 
	C103.950897,104.960571 103.286072,104.544121 102.351837,103.666939 
	C102.053711,102.806877 102.025002,102.407555 101.998993,102.004402 
	C102.001701,102.000580 102.009621,101.998108 102.277390,101.936577 
	C102.776985,101.603722 103.008812,101.332405 103.512451,101.016052 
	C104.175743,100.613991 104.567238,100.256958 105.248840,99.838394 
	C106.089386,99.239403 106.639816,98.701935 107.140976,98.142578 
	C107.091713,98.120689 107.094673,98.228462 107.401077,98.206482 
	C108.154900,97.796478 108.602325,97.408463 109.025848,97.008476 
	C109.001945,96.996506 109.007072,97.049721 109.276093,96.991776 
	C109.755203,96.653374 109.965302,96.372910 110.115562,96.087090 
	C110.055725,96.081726 110.075348,96.200272 110.375717,96.164398 
	C111.117973,95.749573 111.559868,95.370628 112.000725,94.995361 
	C111.999687,94.999031 111.991196,94.998856 112.348312,94.896469 
	C118.032127,94.359665 114.049484,98.397285 115.192993,99.972404 
	C115.192993,99.972404 114.966805,100.345177 114.701187,100.712326 
	C114.031120,101.713089 113.626671,102.346703 113.222229,102.980316 
	C110.644867,103.718132 108.067505,104.455940 105.052933,105.285385 
z"/>
<path fill="#C8B057" opacity="1.000000" stroke="none" 
	d="
M115.491699,99.780991 
	C114.049484,98.397285 118.032127,94.359665 112.317284,94.548668 
	C111.628059,93.190735 111.326973,92.078209 111.025887,90.965683 
	C111.824722,91.143562 112.623558,91.321449 113.834831,91.591171 
	C113.130226,88.536438 112.476334,85.701523 111.796829,82.470627 
	C114.777725,87.530479 117.279022,93.102242 115.491699,99.780991 
z"/>
<path fill="#C8B057" opacity="1.000000" stroke="none" 
	d="
M126.113754,74.896729 
	C126.785103,76.378891 127.416634,78.280350 128.041443,80.558128 
	C127.381134,79.061638 126.727531,77.188828 126.113754,74.896729 
z"/>
<path fill="#C8B057" opacity="1.000000" stroke="none" 
	d="
M111.383270,79.734680 
	C111.533607,78.400497 111.924713,76.834549 112.630707,75.097404 
	C112.505074,76.451775 112.064552,77.977348 111.383270,79.734680 
z"/>
<path fill="#C8B057" opacity="1.000000" stroke="none" 
	d="
M117.313431,70.981255 
	C117.758934,70.365028 118.566505,69.763321 119.671814,69.057007 
	C119.204872,69.633530 118.440186,70.314651 117.313431,70.981255 
z"/>
<path fill="#C8B057" opacity="1.000000" stroke="none" 
	d="
M113.536797,102.924446 
	C113.626671,102.346703 114.031120,101.713089 114.680824,100.929382 
	C114.567841,101.475723 114.209602,102.172150 113.536797,102.924446 
z"/>
<path fill="#C8B057" opacity="1.000000" stroke="none" 
	d="
M116.234306,71.887123 
	C116.166451,71.701088 116.319611,71.401329 116.725082,71.024673 
	C116.907860,71.289062 116.733833,71.564278 116.234306,71.887123 
z"/>
<path fill="#C8B057" opacity="1.000000" stroke="none" 
	d="
M113.166481,74.871597 
	C113.101173,74.669662 113.281914,74.377747 113.715172,74.004135 
	C113.782639,74.208832 113.597580,74.495232 113.166481,74.871597 
z"/>
<path fill="#DCE9EB" opacity="1.000000" stroke="none" 
	d="
M65.915009,131.421265 
	C66.785355,131.074005 67.560852,131.147720 68.567047,131.114670 
	C68.857666,133.375534 68.917580,135.743179 68.974197,138.557220 
	C68.191895,138.351410 67.412880,137.699188 66.320648,137.023071 
	C65.945007,135.280197 65.882576,133.561218 65.915009,131.421265 
z"/>
<path fill="#EEF5F7" opacity="1.000000" stroke="none" 
	d="
M39.294079,132.565704 
	C41.228855,128.507141 44.045822,127.115036 47.903698,128.857925 
	C51.181030,130.338531 51.718067,133.274811 50.947838,136.375717 
	C50.106636,139.762390 47.532196,141.319473 44.219543,140.683212 
	C40.124760,139.896729 38.682243,136.941650 39.294079,132.565704 
z"/>
<path fill="#EEF5F7" opacity="1.000000" stroke="none" 
	d="
M153.252808,129.236206 
	C158.422653,127.533676 161.738144,128.762939 162.657883,132.665649 
	C163.521240,136.329117 162.361145,139.624603 158.511948,140.373245 
	C156.517883,140.761093 153.375000,139.794113 152.092026,138.293076 
	C149.763916,135.569305 150.093399,132.172089 153.252808,129.236206 
z"/>
<path fill="#EBF2F4" opacity="1.000000" stroke="none" 
	d="
M97.072144,139.910797 
	C96.370857,139.416138 95.933357,139.136505 95.652687,138.744568 
	C93.425026,135.633728 93.322296,132.212738 96.270378,129.942917 
	C97.761978,128.794479 101.903053,128.541397 102.681061,129.551376 
	C104.216362,131.544449 105.221298,134.929901 104.657166,137.316879 
	C103.885780,140.580750 100.684395,141.336594 97.072144,139.910797 
z"/>
<path fill="#C8B057" opacity="1.000000" stroke="none" 
	d="
M101.996292,102.008224 
	C102.025002,102.407555 102.053711,102.806877 102.096359,103.508331 
	C101.346649,103.861893 100.583015,103.913338 99.391647,103.957748 
	C98.963913,103.950714 98.872337,103.830231 99.061081,103.576172 
	C100.165321,102.884155 101.080811,102.446190 101.996292,102.008224 
z"/>
<path fill="#C8B057" opacity="1.000000" stroke="none" 
	d="
M99.009827,104.010864 
	C98.648369,104.440094 98.240997,104.809166 97.565613,105.264709 
	C97.297600,105.351189 97.133621,105.154327 97.217216,104.823936 
	C97.824654,104.272438 98.348495,104.051338 98.872337,103.830231 
	C98.872337,103.830231 98.963913,103.950714 99.009827,104.010864 
z"/>
<path fill="#D4AF35" opacity="1.000000" stroke="none" 
	d="
M99.061081,103.576172 
	C98.348495,104.051338 97.824654,104.272438 97.132576,104.727783 
	C93.839386,105.977371 90.780350,107.362488 87.576210,107.933746 
	C80.118301,109.263412 75.577057,104.758987 71.413681,99.089211 
	C72.297020,97.041939 67.990257,93.071472 73.825424,92.849091 
	C74.183167,92.809990 74.139366,92.872101 74.199203,93.117561 
	C74.584679,93.522072 74.910324,93.681122 75.235962,93.840172 
	C75.235962,93.840172 75.276337,93.806824 75.299026,93.791969 
	C77.274246,97.881386 81.027061,96.782394 83.784843,95.848747 
	C86.391418,94.966286 88.438568,92.431419 90.870087,90.315712 
	C91.394279,89.664391 91.780144,89.320702 92.716782,88.887314 
	C93.503220,88.508957 93.738876,88.220306 93.974533,87.931648 
	C94.365120,87.601768 94.755699,87.271889 95.694801,86.862282 
	C96.480255,86.496223 96.717186,86.209892 96.954117,85.923561 
	C96.954117,85.923561 96.991684,86.001350 97.409348,85.996284 
	C99.911758,85.967949 101.996521,85.944679 104.081276,85.921417 
	C104.081276,85.921410 103.989281,85.944305 104.042259,86.293259 
	C105.440063,87.406540 106.784889,88.170853 108.129723,88.935165 
	C108.420479,88.957909 108.673859,89.067245 109.090118,89.759529 
	C109.870796,90.494919 110.451233,90.733963 111.031670,90.973007 
	C111.031670,90.973015 111.016777,90.991409 111.021332,90.978546 
	C111.326973,92.078209 111.628059,93.190735 111.960175,94.651062 
	C111.991196,94.998856 111.999687,94.999031 111.687683,95.015259 
	C110.942238,95.421089 110.508789,95.810677 110.075348,96.200272 
	C110.075348,96.200272 110.055725,96.081726 109.852295,96.150513 
	C109.434937,96.496101 109.221008,96.772911 109.007072,97.049721 
	C109.007072,97.049721 109.001945,96.996506 108.705200,97.016205 
	C107.970520,97.433426 107.532593,97.830940 107.094666,98.228455 
	C107.094673,98.228462 107.091713,98.120689 106.806488,98.115524 
	C106.000420,98.706886 105.479576,99.303406 104.958733,99.899918 
	C104.567238,100.256958 104.175743,100.613991 103.243179,101.076736 
	C102.471275,101.454330 102.240440,101.726212 102.009613,101.998108 
	C102.009621,101.998108 102.001701,102.000580 101.998993,102.004402 
	C101.080811,102.446190 100.165321,102.884155 99.061081,103.576172 
z"/>
<path fill="#C8B057" opacity="1.000000" stroke="none" 
	d="
M103.883263,85.646454 
	C101.996521,85.944679 99.911758,85.967949 97.380768,85.963730 
	C99.184769,85.748001 101.435005,85.559746 103.883263,85.646454 
z"/>
<path fill="#C8B057" opacity="1.000000" stroke="none" 
	d="
M107.977051,88.644539 
	C106.784889,88.170853 105.440063,87.406540 104.085556,86.271378 
	C105.325371,86.718323 106.574883,87.536118 107.977051,88.644539 
z"/>
<path fill="#C8B057" opacity="1.000000" stroke="none" 
	d="
M110.878044,90.710732 
	C110.451233,90.733963 109.870796,90.494919 109.207901,89.933380 
	C109.658432,89.890083 110.191429,90.169273 110.878044,90.710732 
z"/>
<path fill="#C8B057" opacity="1.000000" stroke="none" 
	d="
M96.682785,85.986359 
	C96.717186,86.209892 96.480255,86.496223 95.955444,86.818039 
	C95.915535,86.585411 96.163498,86.317291 96.682785,85.986359 
z"/>
<path fill="#C8B057" opacity="1.000000" stroke="none" 
	d="
M93.702141,87.996521 
	C93.738876,88.220306 93.503220,88.508957 92.979965,88.840187 
	C92.938164,88.608978 93.183960,88.335190 93.702141,87.996521 
z"/>
<path fill="#C8B057" opacity="1.000000" stroke="none" 
	d="
M75.145859,93.574966 
	C74.910324,93.681122 74.584679,93.522072 74.168381,93.095337 
	C74.403732,92.988358 74.729744,93.149063 75.145859,93.574966 
z"/>
<path fill="#C8B057" opacity="1.000000" stroke="none" 
	d="
M105.248840,99.838394 
	C105.479576,99.303406 106.000420,98.706886 106.855751,98.137421 
	C106.639816,98.701935 106.089386,99.239403 105.248840,99.838394 
z"/>
<path fill="#C8B057" opacity="1.000000" stroke="none" 
	d="
M110.375717,96.164398 
	C110.508789,95.810677 110.942238,95.421089 111.688721,95.011589 
	C111.559868,95.370628 111.117973,95.749573 110.375717,96.164398 
z"/>
<path fill="#C8B057" opacity="1.000000" stroke="none" 
	d="
M107.401077,98.206474 
	C107.532593,97.830940 107.970520,97.433426 108.729095,97.028183 
	C108.602325,97.408463 108.154900,97.796478 107.401077,98.206474 
z"/>
<path fill="#C8B057" opacity="1.000000" stroke="none" 
	d="
M109.276093,96.991776 
	C109.221008,96.772911 109.434937,96.496101 109.912140,96.155869 
	C109.965302,96.372910 109.755203,96.653374 109.276093,96.991776 
z"/>
<path fill="#C8B057" opacity="1.000000" stroke="none" 
	d="
M102.277382,101.936569 
	C102.240440,101.726212 102.471275,101.454330 102.971375,101.121765 
	C103.008812,101.332405 102.776985,101.603722 102.277382,101.936569 
z"/>
</svg>